<svg width="32" height="32" viewBox="0 0 32 32" fill="none" xmlns="http://www.w3.org/2000/svg">
<path d="M23.4667 7.07963L15.9333 3.0263C15.1333 2.59963 14.1867 2.59963 13.3867 3.0263L5.86667 7.07963C5.32 7.3863 4.97334 7.97297 4.97334 8.61297C4.97334 9.2663 5.30667 9.85297 5.86667 10.1463L13.4 14.1996C13.8 14.413 14.24 14.5196 14.6667 14.5196C15.0933 14.5196 15.5467 14.413 15.9333 14.1996L23.4667 10.1463C24.0133 9.85297 24.36 9.2663 24.36 8.61297C24.36 7.97297 24.0133 7.3863 23.4667 7.07963Z" fill="#292d32"/>
<path d="M12.16 15.613L5.16 12.1196C4.61333 11.8396 4 11.8796 3.48 12.1863C2.97333 12.5063 2.66666 13.053 2.66666 13.653V20.2663C2.66666 21.413 3.30666 22.4396 4.33333 22.9596L11.3333 26.453C11.5733 26.573 11.84 26.6396 12.1067 26.6396C12.4133 26.6396 12.7333 26.5463 13.0133 26.3863C13.52 26.0663 13.8267 25.5196 13.8267 24.9196V18.3063C13.8133 17.1596 13.1733 16.133 12.16 15.613Z" fill="#292d32"/>
<path d="M26.6667 13.653V16.933C26.0267 16.7463 25.3467 16.6663 24.6667 16.6663C22.8533 16.6663 21.08 17.293 19.68 18.413C17.76 19.9196 16.6667 22.1996 16.6667 24.6663C16.6667 25.3196 16.7467 25.973 16.92 26.5996C16.72 26.573 16.52 26.493 16.3333 26.373C15.8267 26.0663 15.52 25.5196 15.52 24.9196V18.3063C15.52 17.1596 16.16 16.133 17.1733 15.613L24.1733 12.1196C24.72 11.8396 25.3333 11.8796 25.8533 12.1863C26.36 12.5063 26.6667 13.053 26.6667 13.653Z" fill="#292d32"/>
<path d="M29.3333 20.9329C29.3333 20.9196 29.32 20.9063 29.3067 20.8929C29.2533 20.8129 29.1867 20.7329 29.12 20.6663C29.1067 20.6529 29.0933 20.6263 29.08 20.6129C28 19.4129 26.4133 18.6663 24.6667 18.6663C22.9867 18.6663 21.4533 19.3596 20.36 20.4796C19.3067 21.5596 18.6667 23.0396 18.6667 24.6663C18.6667 25.7863 18.9867 26.8529 19.5333 27.7596C19.8267 28.2529 20.2 28.7063 20.6267 29.0796C20.6533 29.0929 20.6667 29.1063 20.68 29.1196C20.7467 29.1863 20.8133 29.2396 20.8933 29.3063C20.8933 29.3063 20.8933 29.3063 20.9067 29.3063C20.92 29.3196 20.9333 29.3329 20.9467 29.3329C21.9467 30.1729 23.24 30.6663 24.6667 30.6663C26.8533 30.6663 28.76 29.4929 29.8 27.7596C30.1067 27.2396 30.3467 26.6663 30.4933 26.0663C30.6133 25.6129 30.6667 25.1463 30.6667 24.6663C30.6667 23.2529 30.1733 21.9463 29.3333 20.9329ZM26.9067 25.6396H25.6667V26.9329C25.6667 27.4796 25.2133 27.9329 24.6667 27.9329C24.12 27.9329 23.6667 27.4796 23.6667 26.9329V25.6396H22.4267C21.88 25.6396 21.4267 25.1863 21.4267 24.6396C21.4267 24.0929 21.88 23.6396 22.4267 23.6396H23.6667V22.4529C23.6667 21.9063 24.12 21.4529 24.6667 21.4529C25.2133 21.4529 25.6667 21.9063 25.6667 22.4529V23.6396H26.9067C27.4533 23.6396 27.9067 24.0929 27.9067 24.6396C27.9067 25.1863 27.4667 25.6396 26.9067 25.6396Z" fill="#292d32"/>
</svg>
