<svg width="64" height="70" viewBox="0 0 64 70" fill="none" xmlns="http://www.w3.org/2000/svg">
<g clip-path="url(#clip0_0_945)">
<path d="M58.7142 66.1464C53.4159 69.1386 44.3256 69.9936 31.752 69.9936C19.1784 69.9936 10.0881 69.1386 4.7898 66.1464C1.60944 64.3549 0 61.9132 0 60.162C0 59.1643 0.530352 58.5945 1.71183 58.5945H61.7913C62.9736 58.5945 63.5031 59.1643 63.5031 60.162C63.504 61.9132 61.8946 64.3549 58.7142 66.1464ZM61.7913 19.7327H1.71183C0.530352 19.7327 0 19.1218 0 18.0226C0 11.5078 9.80277 0.00634766 31.752 0.00634766C53.4982 0.00634766 63.504 11.5078 63.504 18.0226C63.504 19.1218 62.9736 19.7327 61.7913 19.7327Z" fill="#19191C"/>
<path d="M0 33.3108V24.3334C0 23.0714 0.774524 22.1341 2.38396 22.1341H4.80993C7.37767 22.1341 9.02824 23.4381 9.02824 25.8798C9.02824 26.9186 8.64142 27.631 8.25459 28.0791C8.15307 28.2016 8.09094 28.2419 8.09094 28.3434C8.09094 28.4256 8.19333 28.5062 8.29485 28.5884C8.53902 28.7915 9.61898 29.6255 9.61898 31.438C9.61898 33.6968 7.96929 35.5093 5.25801 35.5093H2.38396C0.774524 35.5093 0 34.5728 0 33.3108ZM3.58732 27.0201C3.58732 27.2862 3.7501 27.4892 4.09667 27.4892H4.36097C5.23788 27.4892 5.50306 26.797 5.50306 26.3086C5.50306 25.7783 5.23701 25.1683 4.36097 25.1683H4.09667C3.7501 25.1683 3.58732 25.3722 3.58732 25.6365V27.0201ZM3.58732 31.9876C3.58732 32.2528 3.7501 32.4558 4.09667 32.4558H4.46336C5.44092 32.4558 5.72623 31.7032 5.72623 31.1737C5.72623 30.5829 5.4418 29.9318 4.46336 29.9318H4.09667C3.7501 29.9318 3.58732 30.1357 3.58732 30.4V31.9876ZM15.6104 35.6108C18.9124 35.6108 20.6654 33.6355 20.6654 31.1527V24.2931C20.6654 23.0714 19.9521 22.0938 18.6472 22.0938C17.3432 22.0938 16.63 23.0714 16.63 24.2931V30.9286C16.63 31.417 16.3447 31.9876 15.6104 31.9876C14.877 31.9876 14.6319 31.417 14.6319 30.9286V24.2931C14.6319 23.0714 13.8986 22.0938 12.5937 22.0938C11.2888 22.0938 10.5755 23.0714 10.5755 24.2931V31.1527C10.5773 33.6373 12.3092 35.6108 15.6104 35.6108ZM27.9205 34.4118C27.37 33.6985 26.8817 32.293 26.6979 31.2559C26.6568 31.0109 26.5763 30.8691 26.3312 30.8691C26.1282 30.8691 26.0056 30.9916 26.0056 31.2559V33.4132C26.0056 34.6341 25.2924 35.6117 23.9875 35.6117C22.6826 35.6117 21.9702 34.6341 21.9702 33.4132V24.3334C21.9702 23.0705 22.7439 22.1341 24.3542 22.1341H26.6585C29.2464 22.1341 31.3871 23.6 31.3871 26.1861C31.3871 27.8953 30.6528 28.9744 30.0209 29.4627C29.8371 29.6054 29.7969 29.748 29.8581 29.9108C30.1224 30.6232 30.6528 31.2953 31.2435 32.0681C31.6102 32.5363 31.8955 33.0448 31.8955 33.7379C31.8955 34.7759 30.9775 35.6108 29.9185 35.6108C29.2656 35.6108 28.6136 35.3255 27.9205 34.4118ZM27.6956 26.6543C27.6956 26.1248 27.4313 25.514 26.5754 25.514H26.2901C25.9426 25.514 25.7798 25.7187 25.7798 25.983V27.3658C25.7798 27.631 25.9426 27.834 26.2901 27.834H26.5754C27.4313 27.834 27.6956 27.1628 27.6956 26.6543ZM38.2125 35.6318C41.413 35.6318 43.4303 33.5953 43.4303 30.6241C43.4303 28.7311 42.2882 27.428 40.0066 27.428H39.3546C38.1512 27.428 37.2148 27.9986 37.2148 29.2807C37.2148 30.421 38.2125 30.9706 38.9678 30.9706C39.3546 30.9706 39.5996 31.0932 39.5996 31.3776C39.5996 31.7443 39.1717 31.9885 38.6816 31.9885C37.1535 31.9885 36.1138 30.9094 36.1138 28.8939C36.1138 26.6543 37.5412 25.8404 38.6413 25.8404C39.9865 25.8404 40.2105 26.5335 41.1478 26.5335C42.2286 26.5335 42.962 25.6374 42.962 24.7018C42.962 24.0087 42.6557 23.4801 42.1884 23.1134C41.3316 22.4815 40.13 22.0142 38.3368 22.0142C35.1774 22.0142 32.0994 24.0909 32.0994 28.8947C32.0986 33.4938 35.1757 35.6318 38.2125 35.6318ZM50.6241 35.5093C51.7654 35.5093 52.6624 34.8371 52.6624 33.6163C52.6624 32.4147 51.7654 31.7425 50.6241 31.7425H48.7898C48.4432 31.7425 48.2804 31.5395 48.2804 31.2743V30.8875C48.2804 30.6232 48.4432 30.4193 48.7898 30.4193H50.1962C51.1755 30.4193 51.9491 29.8294 51.9491 28.7906C51.9491 27.7526 51.1755 27.1619 50.1962 27.1619H48.7898C48.4432 27.1619 48.2804 26.958 48.2804 26.6928V26.3673C48.2804 26.1029 48.4432 25.899 48.7898 25.899H50.6241C51.7654 25.899 52.6624 25.2269 52.6624 24.006C52.6624 22.8044 51.7654 22.1323 50.6241 22.1323H46.7725C45.1631 22.1323 44.3886 23.0687 44.3886 24.3316V33.3082C44.3886 34.5702 45.1631 35.5075 46.7725 35.5075H50.6241V35.5093ZM53.5787 33.4141V24.3342C53.5787 23.0714 54.3532 22.1358 55.9627 22.1358H58.2661C60.854 22.1358 62.9947 23.6017 62.9947 26.187C62.9947 27.897 62.2604 28.9761 61.6285 29.4645C61.4447 29.6062 61.4045 29.7489 61.4657 29.9117C61.73 30.6241 62.158 31.1947 62.8511 32.0699C63.2178 32.5372 63.5031 33.0457 63.5031 33.7388C63.5031 34.7776 62.5851 35.6117 61.5261 35.6117C60.8741 35.6117 60.2221 35.3272 59.529 34.4101C58.9785 33.6968 58.4902 32.2921 58.3064 31.2542C58.2661 31.01 58.1847 30.8682 57.9397 30.8682C57.7366 30.8682 57.6141 30.9899 57.6141 31.2542V33.4124C57.6141 34.6332 56.9009 35.6108 55.596 35.6108C54.292 35.6108 53.5787 34.6341 53.5787 33.4141ZM57.3901 27.3667C57.3901 27.6319 57.5529 27.8358 57.8994 27.8358H58.1847C59.0415 27.8358 59.3058 27.1637 59.3058 26.6543C59.3058 26.1248 59.0415 25.514 58.1847 25.514H57.8994C57.5529 25.514 57.3901 25.7187 57.3901 25.983V27.3667ZM12.7985 46.6047C12.6147 46.3193 12.5946 46.1356 12.5946 46.055C12.5946 45.831 12.7171 45.6682 12.9613 45.4442C13.5319 44.9147 14.9383 43.5914 15.7128 42.3907C16.3026 41.4744 16.5477 40.6404 16.5477 39.949C16.5477 38.1777 14.9383 36.7931 13.1853 36.7931C12.0642 36.7931 11.0044 37.4241 10.292 38.5846C9.33368 40.131 8.19158 41.9225 7.45906 42.6358C7.27528 42.8195 7.17376 42.8598 7.03198 42.8598C6.78693 42.8598 6.68541 42.697 6.68541 42.4327V40.3962C6.68541 38.4017 5.50306 36.7931 3.3624 36.7931C1.20248 36.7931 0.0402578 38.4008 0.0402578 40.3962V52.9365C0.0402578 54.931 1.20161 56.5404 3.3624 56.5404C5.50306 56.5404 6.68541 54.9328 6.68541 52.9365V50.0467C6.68541 49.8016 6.78693 49.6196 7.03198 49.6196C7.35754 49.6196 7.43981 49.9452 7.52033 50.108C7.98942 51.2273 9.35468 53.6086 10.6184 55.0133C11.4752 55.9497 12.5342 56.5404 13.6553 56.5404C15.5509 56.5404 17.1411 54.8908 17.1411 53.1203C17.1411 52.0211 16.6711 51.2063 15.7749 50.2296C14.6328 48.986 13.2877 47.3573 12.7985 46.6047ZM22.0919 36.7914C19.8094 36.7914 18.5658 38.5015 18.5658 40.6386V52.6906C18.5658 54.8286 19.8094 56.5387 22.0919 56.5387C24.3735 56.5387 25.6171 54.8286 25.6171 52.6906V40.6386C25.6171 38.5023 24.3752 36.7914 22.0919 36.7914ZM41.6362 36.7914C39.5366 36.7914 38.3954 38.3588 38.3954 40.3341V44.7309C38.3954 45.0967 38.2729 45.2604 38.0488 45.2604C37.8861 45.2604 37.7635 45.1589 37.6209 44.8744L34.7888 39.3775C33.7089 37.2797 32.5878 36.7914 31.3039 36.7914C29.1632 36.7914 27.9818 38.3999 27.9818 40.4155V52.9969C27.9818 54.9721 29.123 56.5396 31.2216 56.5396C33.3212 56.5396 34.4624 54.9721 34.4624 52.9969V48.6C34.4624 48.2342 34.584 48.0706 34.809 48.0706C34.9717 48.0706 35.0943 48.1721 35.236 48.4574L38.069 53.9534C39.1489 56.0512 40.3103 56.5396 41.5539 56.5396C43.6937 56.5396 44.876 54.9319 44.876 52.9164V40.3341C44.876 38.3588 43.7357 36.7914 41.6362 36.7914ZM58.3274 44.6294H57.3288C55.5347 44.6294 54.1493 45.4643 54.1493 47.296C54.1493 48.965 55.6572 49.7588 56.7783 49.7588C57.3288 49.7588 57.7156 49.9215 57.7156 50.3486C57.7156 50.879 57.0636 51.2238 56.3705 51.2238C54.0679 51.2238 52.4979 49.6564 52.4979 46.7456C52.4979 43.5083 54.6385 42.3277 56.2882 42.3277C58.3064 42.3277 58.6319 43.3455 60.0383 43.3455C61.6688 43.3455 62.7689 42.0231 62.7689 40.6798C62.7689 39.6821 62.3208 38.9084 61.6075 38.3789C60.3648 37.4626 58.4902 36.7905 55.8401 36.7905C51.0915 36.7905 46.4653 39.7827 46.4653 46.7456C46.4653 53.4021 51.0906 56.5168 55.6564 56.5168C60.4453 56.5168 63.4821 53.5649 63.4821 49.2494C63.483 46.5224 61.772 44.6294 58.3274 44.6294Z" fill="#19191C"/>
</g>
<defs>
<clipPath id="clip0_0_945">
<rect width="63.504" height="70" fill="white"/>
</clipPath>
</defs>
</svg>
