<svg width="16" height="16" viewBox="0 0 16 16" fill="none" xmlns="http://www.w3.org/2000/svg">
<path d="M5.99998 14.6666C8.57731 14.6666 10.6666 12.5772 10.6666 9.99992C10.6666 7.42259 8.57731 5.33325 5.99998 5.33325C3.42265 5.33325 1.33331 7.42259 1.33331 9.99992C1.33331 12.5772 3.42265 14.6666 5.99998 14.6666Z" fill="black"/>
<path d="M14.6667 5.99992C14.6667 7.82659 13.62 9.40659 12.0934 10.1666C11.8867 10.2733 11.6534 10.1066 11.6334 9.87992C11.4067 6.91326 9.0667 4.59325 6.12003 4.36659C5.88669 4.34659 5.7267 4.11325 5.83337 3.90659C6.59337 2.37992 8.17337 1.33325 10 1.33325C12.58 1.33325 14.6667 3.41992 14.6667 5.99992Z" fill="black"/>
</svg>
