<svg width="32" height="32" viewBox="0 0 32 32" fill="none" xmlns="http://www.w3.org/2000/svg">
<path d="M13.24 16.9996H4.00001C3.26667 16.9996 2.66667 17.5996 2.66667 18.333V21.5863C2.66667 25.8663 6.13334 29.333 10.4133 29.333H12.68C13.7067 29.333 14.3333 28.2396 13.84 27.333C12.7867 25.373 12.3733 23.013 12.8933 20.533C13.08 19.6263 13.4 18.773 13.8267 17.973C14.0533 17.533 13.7467 16.9996 13.24 16.9996ZM9.00001 23.9996C9.00001 24.5463 8.54667 24.9996 8.00001 24.9996C7.45334 24.9996 7.00001 24.5463 7.00001 23.9996V21.333C7.00001 20.7863 7.45334 20.333 8.00001 20.333C8.54667 20.333 9.00001 20.7863 9.00001 21.333V23.9996Z" fill="#292d32"/>
<path d="M21.5867 2.66626H10.4133C6.13334 2.66626 2.66667 6.13293 2.66667 10.4129V13.6663C2.66667 14.3996 3.26667 14.9996 4.00001 14.9996H15.7867C16.08 14.9996 16.36 14.8929 16.6 14.7063C17.7467 13.8263 19.0933 13.1863 20.5333 12.8929C23.0133 12.3729 25.3733 12.7863 27.3333 13.8396C28.24 14.3196 29.3333 13.7063 29.3333 12.6796V10.4129C29.3333 6.13293 25.8667 2.66626 21.5867 2.66626ZM9.00001 10.9996C9.00001 11.5463 8.54667 11.9996 8.00001 11.9996C7.45334 11.9996 7.00001 11.5463 7.00001 10.9996V8.33293C7.00001 7.78626 7.45334 7.33293 8.00001 7.33293C8.54667 7.33293 9.00001 7.78626 9.00001 8.33293V10.9996ZM14.3333 10.9996C14.3333 11.5463 13.88 11.9996 13.3333 11.9996C12.7867 11.9996 12.3333 11.5463 12.3333 10.9996V8.33293C12.3333 7.78626 12.7867 7.33293 13.3333 7.33293C13.88 7.33293 14.3333 7.78626 14.3333 8.33293V10.9996ZM24 10.6663H18.6667C18.12 10.6663 17.6667 10.2129 17.6667 9.66626C17.6667 9.11959 18.12 8.66626 18.6667 8.66626H24C24.5467 8.66626 25 9.11959 25 9.66626C25 10.2129 24.5467 10.6663 24 10.6663Z" fill="#292d32"/>
<path d="M22.6667 14.6663C18.2533 14.6663 14.6667 18.2529 14.6667 22.6663C14.6667 27.0796 18.2533 30.6663 22.6667 30.6663C27.08 30.6663 30.6667 27.0796 30.6667 22.6663C30.6667 18.2529 27.08 14.6663 22.6667 14.6663ZM26.5733 24.2663C26.36 24.7863 26.0533 25.2529 25.6533 25.6529C24.8533 26.4529 23.8 26.8929 22.6667 26.8929C21.76 26.8929 20.9067 26.5996 20.1867 26.0663V26.2529C20.1867 26.6663 19.8533 27.0129 19.4267 27.0129C19 26.9996 18.6667 26.6663 18.6667 26.2396V24.3196C18.6667 23.9063 19 23.5596 19.4267 23.5596H21.3467C21.76 23.5596 22.1067 23.8929 22.1067 24.3196C22.1067 24.7063 21.8267 24.9996 21.4533 25.0529C22.4667 25.5463 23.76 25.3863 24.5733 24.5729C24.8267 24.3196 25.0267 24.0129 25.16 23.6796C25.32 23.2929 25.76 23.1063 26.1467 23.2663C26.5467 23.4263 26.7333 23.8796 26.5733 24.2663ZM26.6667 21.0129C26.6667 21.4263 26.3333 21.7729 25.9067 21.7729H23.9867C23.5733 21.7729 23.2267 21.4396 23.2267 21.0129C23.2267 20.6263 23.5067 20.3329 23.88 20.2796C22.8667 19.7863 21.5733 19.9463 20.7467 20.7596C20.52 20.9863 20.3467 21.2396 20.2133 21.5196C20.08 21.7996 19.8133 21.9596 19.5333 21.9596C19.4267 21.9596 19.32 21.9329 19.2133 21.8929C18.84 21.7196 18.6667 21.2663 18.8533 20.8796C19.0667 20.4396 19.3467 20.0396 19.68 19.6929C20.48 18.8929 21.5333 18.4529 22.6667 18.4529C23.5733 18.4529 24.4267 18.7463 25.1467 19.2796V19.1063C25.1467 18.6929 25.48 18.3463 25.9067 18.3463C26.3333 18.3463 26.6667 18.6663 26.6667 19.0929V21.0129Z" fill="#292d32"/>
</svg>
