<svg width="1376" height="1150" viewBox="0 0 1376 1150" fill="none" xmlns="http://www.w3.org/2000/svg">
<g clip-path="url(#clip0_18_23)">
<g opacity="0.2">
<path d="M1226.41 1092.95C1231.89 1109.75 1243.19 1124.04 1258.28 1133.25C1273.36 1142.45 1291.24 1145.95 1308.69 1143.13C1326.13 1140.3 1341.99 1131.34 1353.4 1117.85C1364.82 1104.36 1371.04 1087.24 1370.93 1069.57C1370.83 1051.89 1364.41 1034.84 1352.84 1021.49C1341.27 1008.13 1325.31 999.352 1307.83 996.732C1290.36 994.112 1272.52 997.825 1257.54 1007.2C1242.57 1016.58 1231.43 1031 1226.15 1047.86" stroke="url(#paint0_linear_18_23)" stroke-width="2.21635" stroke-linecap="round"/>
<path d="M1416.53 1129.06C1431.58 1100.1 1435.01 1066.5 1426.12 1035.1C1417.24 1003.7 1396.71 976.879 1368.72 960.099C1340.74 943.32 1307.4 937.85 1275.52 944.806C1243.64 951.762 1215.62 970.619 1197.16 997.53C1178.71 1024.44 1171.22 1057.38 1176.22 1089.62C1181.22 1121.87 1198.34 1150.99 1224.08 1171.05C1249.81 1191.11 1282.23 1200.59 1314.72 1197.56C1347.21 1194.54 1377.32 1179.23 1398.91 1154.76" stroke="url(#paint1_linear_18_23)" stroke-width="2.21635" stroke-linecap="round"/>
</g>
<g opacity="0.2">
<path d="M198.814 549.811C189.017 526.692 171.278 507.836 148.8 496.646C126.322 485.457 100.584 482.67 76.2316 488.79C51.8793 494.91 30.5164 509.532 15.9983 530.019C1.4802 550.506 -5.23689 575.507 -2.94074 600.512C-0.644587 625.516 10.5136 648.876 28.52 666.376C46.5265 683.876 70.1953 694.364 95.2549 695.946C120.314 697.528 145.114 690.101 165.179 675.004C185.243 659.908 199.251 638.137 204.674 613.62" stroke="url(#paint2_linear_18_23)" stroke-width="2.21635" stroke-linecap="round"/>
<path d="M-66.2676 521.101C-84.0412 563.926 -84.806 611.919 -68.406 655.289C-52.0059 698.658 -19.6768 734.137 21.986 754.486C63.6487 774.835 111.506 778.522 155.794 764.795C200.082 751.067 237.464 720.959 260.314 680.614C283.163 640.268 289.759 592.724 278.754 547.682C267.75 502.64 239.975 463.493 201.097 438.228C162.218 412.964 115.164 403.484 69.5354 411.724C23.9066 419.964 -16.8593 445.302 -44.4457 482.57" stroke="url(#paint3_linear_18_23)" stroke-width="2.21635" stroke-linecap="round"/>
</g>
<g opacity="0.2">
<path d="M1281.53 242.227C1302.04 256.713 1327.05 263.391 1352.05 261.056C1377.05 258.721 1400.39 247.526 1417.87 229.493C1435.34 211.459 1445.79 187.774 1447.33 162.712C1448.88 137.65 1441.41 112.862 1426.28 92.8208C1411.15 72.7798 1389.36 58.8061 1364.84 53.4216C1340.31 48.037 1314.67 51.5961 1292.54 63.4568C1270.4 75.3174 1253.24 94.6982 1244.14 118.102C1235.05 141.505 1234.61 167.39 1242.92 191.084" stroke="url(#paint4_linear_18_23)" stroke-width="2.21635" stroke-linecap="round"/>
<path d="M1527.94 126.946C1520.48 81.183 1495.84 39.9913 1459.05 11.7739C1422.25 -16.4435 1376.08 -29.5603 1329.95 -24.9006C1283.82 -20.241 1241.2 1.84405 1210.8 36.8489C1180.39 71.8538 1164.48 117.141 1166.33 163.471C1168.17 209.801 1187.61 253.684 1220.7 286.166C1253.79 318.648 1298.02 337.283 1344.38 338.268C1390.74 339.253 1435.72 322.514 1470.16 291.467C1504.6 260.419 1525.89 217.402 1529.7 171.192" stroke="url(#paint5_linear_18_23)" stroke-width="2.21635" stroke-linecap="round"/>
</g>
</g>
<defs>
<linearGradient id="paint0_linear_18_23" x1="1343.55" y1="1012.48" x2="1250.15" y2="1127.51" gradientUnits="userSpaceOnUse">
<stop stop-color="white"/>
<stop offset="1" stop-color="white" stop-opacity="0"/>
</linearGradient>
<linearGradient id="paint1_linear_18_23" x1="1309.54" y1="953.736" x2="1393.83" y2="1157.79" gradientUnits="userSpaceOnUse">
<stop stop-color="white"/>
<stop offset="1" stop-color="white" stop-opacity="0"/>
</linearGradient>
<linearGradient id="paint2_linear_18_23" x1="42.7763" y1="677.992" x2="161" y2="503.779" gradientUnits="userSpaceOnUse">
<stop stop-color="white"/>
<stop offset="1" stop-color="white" stop-opacity="0"/>
</linearGradient>
<linearGradient id="paint3_linear_18_23" x1="106.549" y1="756.292" x2="-37.6244" y2="477.666" gradientUnits="userSpaceOnUse">
<stop stop-color="white"/>
<stop offset="1" stop-color="white" stop-opacity="0"/>
</linearGradient>
<linearGradient id="paint4_linear_18_23" x1="1346.6" y1="51.062" x2="1337.92" y2="261.423" gradientUnits="userSpaceOnUse">
<stop stop-color="white"/>
<stop offset="1" stop-color="white" stop-opacity="0"/>
</linearGradient>
<linearGradient id="paint5_linear_18_23" x1="1257.13" y1="18.1258" x2="1526.49" y2="178.955" gradientUnits="userSpaceOnUse">
<stop stop-color="white"/>
<stop offset="1" stop-color="white" stop-opacity="0"/>
</linearGradient>
<clipPath id="clip0_18_23">
<rect width="1376" height="1150" fill="white"/>
</clipPath>
</defs>
</svg>
