<svg width="115" height="44" viewBox="0 0 115 44" fill="none" xmlns="http://www.w3.org/2000/svg">
<path d="M46.9956 21.4804C46.9956 19.6456 47.392 18.0138 48.1849 16.5848C48.9778 15.1382 50.079 14.018 51.4886 13.2241C52.9158 12.4126 54.528 12.0068 56.3252 12.0068C58.5277 12.0068 60.413 12.589 61.9811 13.7534C63.5493 14.9177 64.5976 16.5054 65.1262 18.5166H60.1575C59.7875 17.7404 59.2589 17.1494 58.5717 16.7436C57.9022 16.3378 57.1357 16.135 56.2723 16.135C54.8804 16.135 53.7527 16.6201 52.8894 17.5904C52.026 18.5607 51.5943 19.8573 51.5943 21.4804C51.5943 23.1034 52.026 24.4001 52.8894 25.3703C53.7527 26.3406 54.8804 26.8258 56.2723 26.8258C57.1357 26.8258 57.9022 26.6229 58.5717 26.2171C59.2589 25.8114 59.7875 25.2204 60.1575 24.4442H65.1262C64.5976 26.4553 63.5493 28.043 61.9811 29.2074C60.413 30.3541 58.5277 30.9275 56.3252 30.9275C54.528 30.9275 52.9158 30.5305 51.4886 29.7366C50.079 28.9251 48.9778 27.8049 48.1849 26.3759C47.392 24.9469 46.9956 23.3151 46.9956 21.4804Z" fill="white"/>
<path d="M73.0212 31.0068C71.5764 31.0068 70.2726 30.6981 69.1097 30.0807C67.9644 29.4632 67.057 28.5811 66.3874 27.4344C65.7355 26.2877 65.4095 24.9469 65.4095 23.4121C65.4095 21.8949 65.7443 20.563 66.4138 19.4163C67.0834 18.252 67.9996 17.3611 69.1625 16.7436C70.3254 16.1261 71.6293 15.8174 73.0741 15.8174C74.5189 15.8174 75.8228 16.1261 76.9857 16.7436C78.1486 17.3611 79.0648 18.252 79.7343 19.4163C80.4039 20.563 80.7387 21.8949 80.7387 23.4121C80.7387 24.9293 80.3951 26.2701 79.7079 27.4344C79.0384 28.5811 78.1133 29.4632 76.9328 30.0807C75.7699 30.6981 74.466 31.0068 73.0212 31.0068ZM73.0212 27.0904C73.8846 27.0904 74.6158 26.7729 75.2149 26.1378C75.8316 25.5027 76.1399 24.5941 76.1399 23.4121C76.1399 22.2301 75.8404 21.3216 75.2413 20.6865C74.6599 20.0514 73.9375 19.7339 73.0741 19.7339C72.1931 19.7339 71.4619 20.0514 70.8804 20.6865C70.299 21.304 70.0083 22.2125 70.0083 23.4121C70.0083 24.5941 70.2902 25.5027 70.854 26.1378C71.4355 26.7729 72.1579 27.0904 73.0212 27.0904Z" fill="white"/>
<path d="M80.6519 23.4121C80.6519 21.8773 80.9603 20.5365 81.577 19.3898C82.2113 18.2431 83.0835 17.3611 84.1935 16.7436C85.3212 16.1261 86.6074 15.8174 88.0522 15.8174C89.9023 15.8174 91.444 16.3026 92.6774 17.2729C93.9284 18.2431 94.7477 19.6104 95.1353 21.3745H90.3251C89.9199 20.2455 89.1358 19.6809 87.9729 19.6809C87.1448 19.6809 86.4841 20.0073 85.9907 20.66C85.4973 21.2951 85.2507 22.2125 85.2507 23.4121C85.2507 24.6118 85.4973 25.5379 85.9907 26.1907C86.4841 26.8258 87.1448 27.1433 87.9729 27.1433C89.1358 27.1433 89.9199 26.5788 90.3251 25.4497H95.1353C94.7477 27.1786 93.9284 28.537 92.6774 29.5249C91.4264 30.5129 89.8847 31.0068 88.0522 31.0068C86.6074 31.0068 85.3212 30.6981 84.1935 30.0807C83.0835 29.4632 82.2113 28.5811 81.577 27.4344C80.9603 26.2877 80.6519 24.9469 80.6519 23.4121Z" fill="white"/>
<path d="M95.0684 23.3857C95.0684 21.8685 95.3503 20.5365 95.9142 19.3898C96.4956 18.2431 97.2797 17.3611 98.2664 16.7436C99.2531 16.1261 100.354 15.8174 101.57 15.8174C102.61 15.8174 103.517 16.0291 104.292 16.4525C105.085 16.8759 105.693 17.4316 106.116 18.1196V16.0291H110.635V30.7951H106.116V28.7046C105.675 29.3926 105.059 29.9483 104.266 30.3717C103.491 30.7951 102.583 31.0068 101.544 31.0068C100.346 31.0068 99.2531 30.6981 98.2664 30.0807C97.2797 29.4456 96.4956 28.5547 95.9142 27.4079C95.3503 26.2436 95.0684 24.9028 95.0684 23.3857ZM106.116 23.4121C106.116 22.2831 105.799 21.3922 105.165 20.7394C104.548 20.0867 103.79 19.7603 102.892 19.7603C101.993 19.7603 101.227 20.0867 100.592 20.7394C99.9755 21.3745 99.6672 22.2566 99.6672 23.3857C99.6672 24.5147 99.9755 25.4145 100.592 26.0848C101.227 26.7376 101.993 27.0639 102.892 27.0639C103.79 27.0639 104.548 26.7376 105.165 26.0848C105.799 25.4321 106.116 24.5412 106.116 23.4121Z" fill="white"/>
<path d="M37.7078 14.8796C37.0466 13.335 36.1716 11.8956 35.1094 10.6055C33.5392 8.6414 31.5798 7.03932 29.3599 5.90469C27.14 4.77008 24.7101 4.12862 22.2301 4.02255C19.7501 3.91648 17.2763 4.3482 14.9713 5.28931C12.6664 6.2304 10.5827 7.65955 8.8574 9.48267C7.13205 11.3058 5.80417 13.4816 4.96117 15.8668C4.11816 18.2519 3.77913 20.7925 3.9664 23.3212C4.15368 25.85 4.863 28.3095 6.04769 30.5379C7.23238 32.7664 8.86557 34.7133 10.8398 36.2504C12.1065 37.2564 13.5063 38.0742 14.9973 38.6795C17.0878 39.5547 19.3252 40.0055 21.5844 40.0068C26.2478 39.9963 30.7169 38.0971 34.0122 34.7256C37.3073 31.3541 39.1596 26.7854 39.163 22.0209C39.1663 19.5633 38.6709 17.1316 37.7078 14.8796ZM21.5714 7.67195C23.6003 7.67174 25.6046 8.12477 27.4439 8.99932C26.9954 9.19733 26.5238 9.33563 26.0407 9.41082C24.4513 9.64589 22.9789 10.3998 21.8432 11.5601C20.7075 12.7203 19.9696 14.2247 19.7395 15.8486C19.6385 16.7593 19.233 17.6066 18.5916 18.2474C17.9502 18.8883 17.1121 19.2833 16.2186 19.3661C14.6291 19.6012 13.1566 20.3552 12.021 21.5154C10.8854 22.6757 10.1474 24.18 9.91733 25.8039C9.83942 26.6699 9.47778 27.4837 8.89093 28.1136C7.87838 25.9278 7.42352 23.5157 7.56867 21.102C7.71382 18.6883 8.45426 16.3513 9.7211 14.3084C10.9879 12.2657 12.74 10.5836 14.8142 9.41857C16.8885 8.25358 19.2175 7.64361 21.5844 7.6454L21.5714 7.67195ZM10.8268 31.3125C10.9827 31.1665 11.1386 31.0338 11.2945 30.8745C12.4504 29.7296 13.1923 28.2183 13.3993 26.5871C13.4832 25.6701 13.8839 24.8137 14.5296 24.1712C15.151 23.5105 15.9873 23.1044 16.8812 23.0297C18.4707 22.7946 19.9431 22.0407 21.0787 20.8804C22.2144 19.7202 22.9523 18.2158 23.1824 16.5919C23.2387 15.6329 23.6415 14.7294 24.3128 14.0566C24.9495 13.4087 25.7938 13.0174 26.6904 12.9549C28.1506 12.7497 29.5124 12.0864 30.5881 11.0568C31.8128 12.0949 32.8504 13.3437 33.6542 14.7469C33.6049 14.815 33.5482 14.8774 33.4853 14.9327C32.8652 15.5993 32.0299 16.0143 31.1337 16.1008C29.5426 16.3318 28.0679 17.0844 26.9315 18.2453C25.7952 19.4064 25.0585 20.9129 24.8325 22.5386C24.7409 23.4523 24.3429 24.3057 23.706 24.954C23.069 25.6024 22.2323 26.0058 21.3375 26.0959C19.7434 26.3292 18.2655 27.0816 17.1232 28.2414C15.9811 29.4012 15.2354 30.9065 14.9973 32.5337C14.9274 33.1824 14.7093 33.8053 14.3607 34.3522C13.0277 33.5436 11.8338 32.5167 10.8268 31.3125ZM21.5714 36.4362C20.2531 36.4377 18.941 36.25 17.6737 35.8787C18.1073 35.0531 18.3891 34.1532 18.5052 33.2239C18.5963 32.3122 18.9924 31.4604 19.6267 30.8124C20.261 30.1643 21.0947 29.7596 21.9872 29.6666C23.579 29.4342 25.0544 28.6814 26.1926 27.5209C27.3308 26.3605 28.0707 24.8546 28.3014 23.2288C28.3925 22.317 28.7886 21.4653 29.4229 20.8172C30.0572 20.1692 30.8909 19.7645 31.7833 19.6714C32.9812 19.5123 34.123 19.0566 35.1094 18.3441C35.6571 20.4651 35.722 22.686 35.2991 24.8367C34.8762 26.9873 33.9766 29.0105 32.6695 30.7508C31.3625 32.491 29.6827 33.9024 27.7588 34.8764C25.8351 35.8504 23.7185 36.3613 21.5714 36.3698V36.4362Z" fill="#FF5C00"/>
</svg>
