<svg width="21" height="20" viewBox="0 0 21 20" fill="none" xmlns="http://www.w3.org/2000/svg">
<g id="icon/info">
<path id="Vector" fill-rule="evenodd" clip-rule="evenodd" d="M18.8333 10.0078C18.8333 14.6102 15.1023 18.3412 10.5 18.3412C5.89759 18.3412 2.16663 14.6102 2.16663 10.0078C2.16663 5.40546 5.89759 1.6745 10.5 1.6745C15.1023 1.6745 18.8333 5.40546 18.8333 10.0078ZM10.5 9.1745C10.9602 9.1745 11.3333 9.5476 11.3333 10.0078V14.1752C11.3333 14.6355 10.9602 15.0086 10.5 15.0086C10.0397 15.0086 9.66663 14.6355 9.66663 14.1752V10.0078C9.66663 9.5476 10.0397 9.1745 10.5 9.1745ZM10.5 7.50783C10.9602 7.50783 11.3333 7.13474 11.3333 6.6745C11.3333 6.21426 10.9602 5.84117 10.5 5.84117C10.0397 5.84117 9.66663 6.21426 9.66663 6.6745C9.66663 7.13474 10.0397 7.50783 10.5 7.50783Z" fill="#19191C"/>
</g>
</svg>
