<svg width="24" height="24" viewBox="0 0 24 24" fill="none" xmlns="http://www.w3.org/2000/svg">
<path fill-rule="evenodd" clip-rule="evenodd" d="M6.08577 23.922C4.65848 23.857 3.88314 23.6195 3.36743 23.4184C2.6841 23.1523 2.19693 22.8356 1.68407 22.3235C1.17122 21.8113 0.853806 21.3242 0.589176 20.6408C0.388029 20.1251 0.150504 19.3498 0.0855946 17.9225C0.0142658 16.3796 0 15.9167 0 12.0079C0 8.09909 0.0156923 7.63688 0.0848813 6.09261C0.14979 4.66532 0.388742 3.8914 0.588463 3.37427C0.854519 2.69094 1.17193 2.20376 1.68336 1.6902C2.1955 1.17805 2.68268 0.859928 3.36672 0.595298C3.88243 0.394151 4.65777 0.156626 6.08506 0.0917172C7.62861 0.0211017 8.09225 0.00683594 11.9996 0.00683594C15.9085 0.00683594 16.3707 0.0225283 17.9149 0.0917172C19.3422 0.156626 20.1161 0.395578 20.6333 0.595298C21.3166 0.859928 21.8038 1.17805 22.3166 1.6902C22.8295 2.20234 23.1455 2.69023 23.4115 3.37355C23.6127 3.88926 23.8502 4.66461 23.9151 6.0919C23.9857 7.63616 24 8.09837 24 12.0072C24 15.9146 23.9857 16.3782 23.9151 17.9225C23.8502 19.3498 23.6113 20.1251 23.4115 20.6408C23.1455 21.3242 22.8288 21.8113 22.3166 22.3235C21.8045 22.8356 21.3166 23.1523 20.6333 23.4184C20.1176 23.6195 19.3422 23.857 17.9149 23.922C16.3721 23.9926 15.9085 24.0068 11.9996 24.0068C8.09225 24.0068 7.62861 23.9933 6.08577 23.922ZM18.4505 5.13479C18.2572 4.84532 18.1541 4.50505 18.1543 4.157C18.1547 3.69047 18.3402 3.24318 18.6702 2.91336C19.0001 2.58354 19.4475 2.39817 19.914 2.39795H19.9147C20.2628 2.39809 20.603 2.50143 20.8923 2.69491C21.1816 2.88839 21.407 3.16332 21.5401 3.48493C21.6732 3.80653 21.7079 4.16037 21.6398 4.50171C21.5718 4.84304 21.4041 5.15653 21.1579 5.40254C20.9117 5.64855 20.598 5.81602 20.2566 5.88378C19.9153 5.95155 19.5614 5.91656 19.2399 5.78324C18.9184 5.64992 18.6437 5.42426 18.4505 5.13479ZM5.36842 11.9805C5.36842 8.24577 8.38379 5.21736 12.1045 5.21736C15.8251 5.21736 18.8421 8.24577 18.8421 11.9805C18.8421 15.7153 15.8251 18.7437 12.1045 18.7437C8.38379 18.7437 5.36842 15.7153 5.36842 11.9805Z" fill="#F8F9FF"/>
<path d="M12.098 7.09709C9.39837 7.09709 7.21053 9.28611 7.21053 11.9857C7.21053 14.6853 9.39837 16.8743 12.098 16.8743C14.7975 16.8743 16.9866 14.6853 16.9866 11.9857C16.9866 9.28611 14.7975 7.09709 12.098 7.09709Z" fill="#F8F9FF"/>
</svg>
