<svg width="318" height="316" viewBox="0 0 318 316" fill="none" xmlns="http://www.w3.org/2000/svg">
<path d="M124.795 4.03213C135.591 1.61076 146.654 0.450058 157.711 0.305664C154.69 1.3664 151.553 2.0606 148.554 3.19354C136.325 7.59754 124.845 15.0449 117.292 25.7856C113.91 30.5839 111.378 35.9765 109.862 41.6467C107.013 52.3207 105.291 63.3502 105.469 74.4185C105.541 87.7749 108.518 100.881 111.672 113.794C115.998 130.954 119.808 148.315 121.302 165.981C122.89 181.953 122.468 198.269 118.37 213.858C115.743 224.466 111.322 234.484 107.268 244.592C103.847 253.133 101.065 262.264 101.842 271.566C102.642 282.534 107.54 292.692 113.283 301.883C115.138 304.715 116.876 307.648 119.081 310.224C123.168 296.118 126.972 281.923 130.188 267.589C132.959 255.627 135.025 243.526 137.435 231.491C141.323 210.654 143.239 189.5 144.172 168.341C144.572 159.061 145.71 149.825 145.777 140.534C146.099 130.86 145.977 121.041 143.583 111.6C142.55 106.907 140.845 102.386 139.834 97.6881C142.678 103.097 146.121 108.279 150.586 112.488C152.935 114.582 155.557 116.659 158.711 117.303C161.132 117.059 163.248 115.632 165.153 114.21C170.724 109.812 174.633 103.736 178.049 97.6103C176.244 104.214 174.05 110.733 172.978 117.52C171.246 128.072 171.956 138.796 172.301 149.425C173.722 165.52 173.945 181.692 175.633 197.77C176.994 211.926 179.076 226.015 182.014 239.933C186.185 263.63 191.944 287.022 198.647 310.124C199.935 308.88 200.896 307.37 201.879 305.893C208.083 296.613 213.67 286.522 215.491 275.376C217.035 266.345 215.208 257.126 212.048 248.641C208.066 237.983 203.162 227.648 200.141 216.646C195.815 201.524 194.821 185.596 196.148 169.968C197.353 152.38 200.796 135.042 205.073 117.97C207.894 106.357 210.882 94.7114 211.887 82.7656C212.814 72.5802 212.214 62.2839 210.326 52.243C208.843 44.5623 207.1 36.7762 203.118 29.9508C195.97 17.1997 183.33 8.38616 169.818 3.41568C166.686 2.16057 163.365 1.48858 160.205 0.322325C171.051 0.455611 181.914 1.57189 192.505 3.94883C196.875 5.97034 200.918 8.69716 204.306 12.1348C211.498 19.349 216.768 28.3902 220.028 38.0146C226.348 57.219 225.649 77.9228 222.478 97.6548C220.267 110.2 221.817 123.251 226.16 135.18C229.581 144.527 234.412 153.43 240.799 161.088C246.869 167.797 254.166 173.295 260.042 180.198C267.589 188.928 273.482 199.252 276.192 210.526C278.702 220.823 279.035 231.597 277.814 242.098C276.775 250.046 274.576 257.865 270.999 265.046C269.905 267.328 268.428 269.405 267.434 271.738C253.617 285.144 237.161 295.857 219.39 303.255C226.276 299.539 233.035 295.457 238.8 290.109C253.705 276.742 263.324 257.665 265.224 237.739C266.49 225.149 264.596 212.087 258.915 200.713C255.866 194.498 251.462 189.067 246.53 184.252C237.544 175.094 227.087 166.98 220.845 155.523C216.202 147.326 214.125 137.957 213.303 128.644C212.131 135.314 210.532 141.9 209.41 148.581C207.377 160.588 206.578 172.773 206.539 184.935C206.5 196.998 207.799 209.193 211.804 220.628C215.424 231.18 221.317 240.86 224.055 251.728C227.037 261.908 227.859 272.921 224.927 283.212C222.578 291.964 217.507 299.7 211.476 306.359C177.493 318.399 139.335 318.372 105.446 306.009C98.199 298.334 92.6676 288.81 90.8683 278.325C88.7135 266.762 91.1682 254.933 95.0946 244.037C98.088 235.956 102.292 228.375 105.03 220.195C108.99 208.905 110.367 196.848 110.228 184.924C110.367 169.091 108.823 153.224 105.385 137.757C104.63 134.575 104.214 131.321 103.442 128.144C102.931 136.397 101.12 144.644 97.5493 152.13C94.7447 158.045 90.8239 163.365 86.3476 168.119C78.8558 176.183 70.0645 183.008 63.2835 191.727C53.8813 204.084 50.277 220.151 51.4488 235.462C53.076 259.048 65.6716 281.612 84.9426 295.319C89.1078 298.412 93.7173 300.817 98.3046 303.216C80.4608 295.841 64.1277 284.961 50.1382 271.671C42.2632 260.114 38.9921 245.958 38.7033 232.113C38.6866 221.956 39.9306 211.648 43.7126 202.151C48.2944 190.383 56.2305 180.187 65.4939 171.718C69.3758 168.03 73.5577 164.615 76.9676 160.466C82.3879 153.813 86.6475 146.26 89.8853 138.329C94.8502 126.078 97.0772 112.527 95.039 99.393C92.0512 81.2661 90.9571 62.4394 95.3723 44.4457C97.938 33.6273 103.008 23.3698 110.295 14.9561C114.282 10.3466 119.125 6.37575 124.795 4.03213Z" fill="white"/>
<path d="M155.607 18.5275C156.562 15.995 160.438 15.5674 161.893 17.8666C163.315 19.6271 162.415 22.1262 160.733 23.348C160.677 30.5733 160.627 37.8096 161.366 45.0071C161.849 49.1612 162.288 53.4485 164.109 57.2694C164.587 58.3968 166.008 58.0691 166.964 58.3524C169.846 56.1309 171.901 53.0709 173.689 49.9498C176.01 45.8179 177.932 41.475 179.676 37.0654C178.743 35.4882 178.565 33.2445 180.098 31.9617C182.003 29.929 185.785 31.2008 186.179 33.9387C186.673 36.0213 184.974 37.743 183.136 38.3427C183.025 38.4871 182.803 38.787 182.691 38.937C180.487 44.013 178.51 49.2334 177.332 54.6592C176.86 57.3083 176.305 60.0851 177.016 62.7453C180.503 65.822 182.791 70.2871 182.691 75.0021C182.597 82.6994 178.432 89.6691 173.472 95.2838C169.341 100.071 164.254 103.892 159.055 107.441C150.436 102.059 142.494 94.9451 137.891 85.7427C135.802 81.3887 134.525 76.4016 135.552 71.5866C136.241 68.1656 138.185 65.0556 140.873 62.8452C141.678 58.9133 140.662 54.9202 139.662 51.1271C138.401 46.8398 136.841 42.6301 134.992 38.5649C133.548 37.7985 131.787 36.9488 131.654 35.0828C131.032 31.8617 135.514 29.5236 137.768 31.945C139.423 33.2945 138.901 35.4549 138.285 37.1765C139.929 41.5805 141.878 45.8956 144.205 49.9886C145.999 53.0931 148.031 56.1754 150.936 58.3579C151.908 58.0747 153.368 58.3968 153.785 57.1917C155.084 54.5981 155.557 51.6936 156.023 48.8557C157.234 40.4087 157.228 31.845 157.15 23.3314C155.768 22.2151 154.601 20.2713 155.607 18.5275Z" fill="white"/>
<path d="M44.7012 87.5916C51.9542 85.2091 60.4568 86.2532 66.5824 90.946C70.5199 93.9172 73.0523 98.4656 74.0242 103.258C75.296 109.773 74.5351 116.737 71.5917 122.713C67.3988 131.943 60.1458 139.579 51.5321 144.838C53.4259 140.212 56.2805 135.708 56.2582 130.527C56.5637 126.533 54.2423 122.391 50.4325 120.952C44.8178 118.731 37.276 120.63 34.3937 126.228C31.3115 131.965 30.1563 138.49 29.3844 144.888C28.1515 155.212 28.4514 165.625 28.418 175.988C22.6534 161.638 21.3594 145.771 22.7756 130.471C23.9529 119.208 26.602 107.851 32.3278 97.9824C35.0324 93.1841 39.4364 89.3132 44.7012 87.5916Z" fill="white"/>
<path d="M247.086 94.55C254.1 85.381 268.445 83.8593 277.819 90.1904C283.34 93.8502 286.333 100.015 288.793 105.94C294.019 119.341 295.596 133.953 294.808 148.253C294.169 157.767 292.403 167.291 288.793 176.155C288.699 162.187 289.421 147.981 285.972 134.319C284.883 130.554 283.645 126.644 281.029 123.64C277.264 120.024 271.216 119.041 266.457 121.113C263.036 122.585 260.909 126.278 260.953 129.949C260.87 135.363 263.63 140.173 265.89 144.905C255.616 138.796 247.319 129.105 243.715 117.631C241.788 109.961 242.187 101.07 247.086 94.55Z" fill="white"/>
<path d="M75.0073 199.586C77.3676 197.053 80.7831 195.398 84.2874 195.637C87.6196 195.615 90.9073 197.52 92.4678 200.48C94.6393 204.434 94.4394 209.227 93.473 213.509C91.8458 220.267 88.0472 226.276 83.7542 231.663C81.3218 234.601 78.8782 237.583 75.9459 240.044C78.7282 234.668 81.8494 229.264 82.7879 223.194C83.0323 221.289 83.0267 219.057 81.6383 217.563C79.7501 215.569 76.3902 215.552 74.2742 217.185C71.9306 218.951 70.2923 221.434 68.3597 223.599C68.2264 223.627 67.9542 223.683 67.8154 223.711C66.6103 215.141 69.1094 206 75.0073 199.586Z" fill="white"/>
<path d="M228.098 197.114C232.385 194.793 238 196.009 241.31 199.485C247.73 205.928 250.296 215.596 248.991 224.493C246.492 222.028 244.77 218.662 241.577 216.979C239.277 215.708 235.912 216.346 234.612 218.734C233.496 220.822 233.918 223.266 234.401 225.471C235.668 230.869 238.5 235.689 240.955 240.604C235.479 235.384 230.553 229.464 226.876 222.827C223.949 217.418 221.95 211.181 222.922 204.978C223.433 201.79 225.155 198.641 228.098 197.114Z" fill="white"/>
<path d="M157.712 0.305362C158.517 0.0610033 159.4 0.0554497 160.205 0.322023C163.365 1.48828 166.686 2.16027 169.818 3.41538C183.33 8.38585 195.97 17.1994 203.118 29.9505C207.1 36.7759 208.844 44.562 210.326 52.2427C212.215 62.2836 212.814 72.5799 211.887 82.7653C210.882 94.7111 207.894 106.357 205.073 117.97C200.796 135.041 197.353 152.38 196.148 169.968C194.821 185.596 195.815 201.523 200.141 216.646C203.162 227.648 208.066 237.983 212.048 248.64C215.208 257.126 217.035 266.345 215.491 275.375C213.67 286.521 208.083 296.612 201.879 305.892C200.896 307.37 199.936 308.88 198.647 310.124C191.944 287.021 186.185 263.629 182.014 239.932C179.076 226.015 176.994 211.925 175.633 197.769C173.945 181.692 173.723 165.519 172.301 149.425C171.957 138.796 171.246 128.072 172.978 117.52C174.05 110.733 176.244 104.213 178.049 97.61C174.633 103.736 170.724 109.811 165.153 114.21C163.249 115.631 161.133 117.059 158.711 117.303C155.557 116.659 152.936 114.582 150.586 112.488C146.121 108.279 142.678 103.097 139.835 97.6878C140.845 102.386 142.55 106.907 143.583 111.6C145.977 121.041 146.099 130.859 145.777 140.534C145.71 149.825 144.572 159.061 144.172 168.341C143.239 189.5 141.323 210.654 137.435 231.491C135.025 243.525 132.959 255.627 130.188 267.589C126.972 281.923 123.168 296.118 119.081 310.224C116.876 307.647 115.138 304.715 113.283 301.883C107.54 292.691 102.642 282.534 101.842 271.566C101.065 262.263 103.847 253.133 107.268 244.592C111.322 234.484 115.743 224.465 118.37 213.858C122.468 198.269 122.891 181.953 121.302 165.98C119.808 148.314 115.999 130.954 111.672 113.793C108.518 100.881 105.541 87.7746 105.469 74.4182C105.291 63.3499 107.013 52.3204 109.862 41.6464C111.378 35.9762 113.91 30.5836 117.293 25.7853C124.845 15.0446 136.325 7.59724 148.554 3.19324C151.553 2.0603 154.69 1.3661 157.712 0.305362ZM155.607 18.5267C154.602 20.2706 155.768 22.2143 157.151 23.3306C157.228 31.8443 157.234 40.4079 156.023 48.855C155.557 51.6928 155.085 54.5974 153.785 57.1909C153.369 58.396 151.908 58.0739 150.936 58.3572C148.032 56.1746 145.999 53.0924 144.205 49.9879C141.878 45.8949 139.929 41.5797 138.285 37.1757C138.902 35.4541 139.424 33.2938 137.769 31.9442C135.514 29.5229 131.032 31.8609 131.654 35.082C131.787 36.948 133.548 37.7977 134.992 38.5641C136.841 42.6294 138.402 46.839 139.662 51.1264C140.662 54.9195 141.678 58.9125 140.873 62.8445C138.185 65.0548 136.241 68.1648 135.553 71.5858C134.525 76.4008 135.803 81.388 137.891 85.742C142.495 94.9443 150.436 102.058 159.056 107.44C164.254 103.891 169.341 100.07 173.473 95.2831C178.432 89.6684 182.597 82.6986 182.692 75.0013C182.792 70.2863 180.504 65.8212 177.016 62.7445C176.305 60.0843 176.86 57.3075 177.332 54.6585C178.51 49.2326 180.487 44.0122 182.692 38.9362C182.803 38.7863 183.025 38.4864 183.136 38.342C184.974 37.7422 186.674 36.0206 186.179 33.938C185.785 31.2001 182.003 29.9283 180.098 31.9609C178.565 33.2438 178.743 35.4874 179.676 37.0647C177.932 41.4742 176.011 45.8171 173.689 49.949C171.901 53.0701 169.846 56.1302 166.964 58.3516C166.009 58.0684 164.587 58.396 164.109 57.2687C162.288 53.4478 161.849 49.1604 161.366 45.0063C160.627 37.8088 160.677 30.5725 160.733 23.3473C162.416 22.1255 163.315 19.6263 161.893 17.8659C160.438 15.5667 156.562 15.9943 155.607 18.5267Z" fill="#19191C"/>
<path d="M86.0868 17.9329C98.3048 11.6684 111.289 6.65353 124.795 4.03223C119.125 6.37585 114.282 10.3467 110.295 14.9562C103.009 23.3699 97.9382 33.6274 95.3725 44.4458C90.9574 62.4395 92.0514 81.2662 95.0393 99.3931C97.0774 112.527 94.8504 126.078 89.8855 138.329C86.6478 146.26 82.3881 153.813 76.9678 160.466C73.5579 164.615 69.3761 168.03 65.4941 171.718C56.2307 180.187 48.2946 190.383 43.7129 202.151C39.9309 211.648 38.6869 221.956 38.7035 232.113C38.9923 245.958 42.2634 260.114 50.1384 271.671C49.5608 271.405 49.0499 271.055 48.6056 270.605C37.5261 259.731 27.9851 247.269 20.5099 233.651C4.06014 203.923 -2.171 168.774 2.74393 135.181C6.6259 107.635 18.133 81.2551 35.5046 59.5516C49.2276 42.3632 66.5604 28.0682 86.0868 17.9329ZM44.7014 87.5917C39.4366 89.3133 35.0326 93.1842 32.328 97.9825C26.6022 107.851 23.9531 119.208 22.7758 130.471C21.3596 145.771 22.6536 161.638 28.4182 175.988C28.4516 165.625 28.1517 155.212 29.3846 144.888C30.1565 138.49 31.3117 131.965 34.3939 126.228C37.2762 120.63 44.818 118.731 50.4327 120.952C54.2425 122.391 56.5639 126.534 56.2584 130.527C56.2807 135.708 53.4261 140.212 51.5323 144.838C60.146 139.579 67.399 131.943 71.592 122.713C74.5354 116.737 75.2962 109.773 74.0244 103.258C73.0525 98.4657 70.5201 93.9173 66.5826 90.9461C60.457 86.2533 51.9544 85.2092 44.7014 87.5917Z" fill="#19191C"/>
<path d="M192.505 3.94824C210.76 7.6636 228.215 15.111 243.865 25.1686C243.903 25.1963 243.976 25.2408 244.009 25.2685C244.387 25.5129 245.136 26.0127 245.508 26.2571C245.547 26.2793 245.614 26.3293 245.653 26.3515C246.042 26.6125 246.825 27.1345 247.213 27.3956C247.247 27.4233 247.319 27.4677 247.352 27.49C247.73 27.7454 248.485 28.2619 248.863 28.5174C248.896 28.5396 248.957 28.584 248.991 28.6062C253.595 31.8273 258.032 35.2928 262.253 39.0026C262.286 39.0304 262.347 39.0859 262.38 39.1137C264.602 41.2851 267.351 43.1234 269.089 45.678C269.161 46.5777 269.833 47.1997 270.722 47.3052C271.855 47.7495 272.521 48.9047 273.393 49.7155C288.666 65.9209 300.467 85.3918 307.692 106.462C320.371 143.083 318.894 184.346 303.555 219.939C298.823 231.024 292.781 241.542 285.644 251.245C285.622 251.272 285.578 251.333 285.555 251.361C280.102 258.631 274.226 265.678 267.434 271.737C268.428 269.405 269.905 267.328 270.999 265.045C274.576 257.865 276.775 250.045 277.814 242.098C279.036 231.596 278.702 220.822 276.192 210.526C273.482 199.252 267.59 188.928 260.042 180.197C254.167 173.294 246.869 167.796 240.799 161.087C234.412 153.429 229.581 144.527 226.16 135.18C221.817 123.251 220.267 110.2 222.478 97.6542C225.649 77.9222 226.349 57.2184 220.029 38.014C216.769 28.3896 211.498 19.3484 204.306 12.1343C200.919 8.69657 196.876 5.96975 192.505 3.94824ZM247.086 94.5497C242.187 101.07 241.788 109.961 243.715 117.63C247.319 129.104 255.616 138.795 265.89 144.904C263.63 140.173 260.87 135.363 260.953 129.948C260.909 126.277 263.036 122.584 266.457 121.113C271.216 119.041 277.264 120.024 281.029 123.639C283.645 126.644 284.884 130.554 285.972 134.319C289.421 147.981 288.699 162.187 288.793 176.154C292.403 167.291 294.169 157.766 294.808 148.253C295.596 133.953 294.019 119.341 288.793 105.94C286.333 100.014 283.34 93.85 277.819 90.1901C268.445 83.859 254.1 85.3807 247.086 94.5497Z" fill="#19191C"/>
<path d="M103.442 128.144C104.214 131.32 104.63 134.575 105.386 137.757C108.823 153.224 110.367 169.09 110.228 184.924C110.367 196.847 108.99 208.904 105.03 220.195C102.292 228.375 98.0883 235.956 95.0949 244.036C91.1685 254.932 88.7138 266.761 90.8686 278.324C92.668 288.809 98.1994 298.334 105.447 306.009C103.609 305.587 101.898 304.77 100.154 304.087C100.115 304.071 100.032 304.037 99.9932 304.021L99.038 303.593C98.9935 303.571 98.9158 303.532 98.8769 303.515L98.3049 303.215C93.7176 300.816 89.1081 298.411 84.9429 295.318C65.6719 281.612 53.0763 259.048 51.4491 235.461C50.2773 220.15 53.8816 204.084 63.2839 191.727C70.0648 183.008 78.8562 176.182 86.348 168.118C90.8242 163.364 94.745 158.044 97.5496 152.13C101.121 144.643 102.931 136.396 103.442 128.144ZM75.0075 199.585C69.1096 206 66.6105 215.141 67.8156 223.71C67.9544 223.682 68.2266 223.627 68.3598 223.599C70.2925 221.433 71.9308 218.951 74.2744 217.184C76.3904 215.552 79.7503 215.568 81.6385 217.562C83.0269 219.056 83.0325 221.289 82.7881 223.193C81.8495 229.264 78.7284 234.667 75.9461 240.043C78.8784 237.583 81.322 234.601 83.7544 231.663C88.0474 226.276 91.846 220.267 93.4732 213.508C94.4396 209.226 94.6395 204.433 92.468 200.479C90.9075 197.519 87.6197 195.614 84.2876 195.636C80.7833 195.398 77.3678 197.053 75.0075 199.585Z" fill="#19191C"/>
<path d="M213.303 128.644C214.125 137.957 216.202 147.326 220.845 155.523C227.087 166.98 237.545 175.094 246.53 184.252C251.462 189.067 255.866 194.498 258.915 200.713C264.596 212.086 266.49 225.148 265.224 237.739C263.325 257.665 253.706 276.741 238.8 290.109C233.035 295.457 226.276 299.539 219.39 303.254C216.835 304.482 214.181 305.52 211.476 306.359C217.507 299.7 222.578 291.964 224.927 283.211C227.859 272.921 227.037 261.908 224.055 251.728C221.317 240.86 215.425 231.18 211.804 220.628C207.8 209.193 206.5 196.997 206.539 184.935C206.578 172.772 207.378 160.588 209.41 148.581C210.532 141.9 212.131 135.313 213.303 128.644ZM228.098 197.114C225.155 198.641 223.433 201.79 222.922 204.978C221.95 211.181 223.949 217.418 226.876 222.827C230.553 229.464 235.479 235.384 240.955 240.604C238.5 235.689 235.668 230.869 234.401 225.471C233.918 223.266 233.496 220.822 234.612 218.734C235.912 216.346 239.277 215.707 241.577 216.979C244.77 218.662 246.492 222.027 248.991 224.493C250.296 215.596 247.73 205.927 241.31 199.485C238 196.009 232.385 194.793 228.098 197.114Z" fill="#19191C"/>
<path opacity="0.86" d="M269.089 45.678C269.844 45.4059 270.972 46.5388 270.722 47.3052C269.833 47.1997 269.161 46.5777 269.089 45.678Z" fill="#19191C"/>
</svg>
