<svg width="70" height="70" viewBox="0 0 70 70" fill="none" xmlns="http://www.w3.org/2000/svg">
<g clip-path="url(#clip0_0_883)">
<path d="M4.18075 2.71118H17.9453V49.2149H6.35087L2.80054 4.06011C2.80054 4.06011 2.61697 2.71118 4.18075 2.71118Z" fill="#19191C"/>
<path d="M8.20019 69.9192C7.32592 69.9186 6.57423 69.4988 6.04274 68.9253C5.50966 68.3488 5.17144 67.6152 5.11203 66.8872L0.161085 3.90119C0.152758 3.80194 0.148662 3.70237 0.148807 3.60277C0.148213 2.62831 0.532574 1.74295 1.17001 1.1071C1.80586 0.469865 2.69715 0.0807521 3.69023 0.0815442H66.3458C67.3389 0.0807521 68.2294 0.469865 68.8656 1.1067C69.5023 1.74295 69.8872 2.62831 69.8864 3.60277C69.8864 3.7002 69.8829 3.79842 69.875 3.89822L64.9238 66.8874C64.864 67.6154 64.5262 68.349 63.9931 68.9255C63.4612 69.499 62.7101 69.9188 61.8357 69.9194V69.0677C62.4281 69.0683 62.96 68.7841 63.3693 68.3457C63.7773 67.91 64.0375 67.3241 64.0747 66.8211L69.0264 3.83208C69.032 3.75465 69.0351 3.67822 69.0351 3.60277C69.0294 2.10592 67.8811 0.938385 66.3458 0.933237H3.69023C2.15418 0.938385 1.00565 2.10612 1.0001 3.60277C1.0001 3.67921 1.00307 3.75386 1.00961 3.83129L5.96076 66.8209C5.99798 67.3239 6.25838 67.9098 6.66611 68.3455C7.07562 68.7839 7.6079 69.0679 8.20039 69.0675H61.8359V69.9192H8.20019Z" fill="#19191C"/>
<path d="M65.8557 2.71118H52.0042V49.2149H63.6856L67.2361 4.06031C67.2361 4.06011 67.4199 2.71118 65.8557 2.71118Z" fill="#19191C"/>
<path d="M69.3035 65.2966C69.2179 65.3227 69.1595 65.4611 69.1595 65.4611L68.7924 66.2449L68.4017 65.4611C68.4017 65.4611 68.3235 65.3041 68.2577 65.2966H68.0561V67.2659H68.3191V65.8722L68.651 66.5564C68.7175 66.6958 68.8296 66.6978 68.9009 66.5608L69.2239 65.938V67.2657H69.512V65.2964H69.3035V65.2966ZM66.7914 67.2659H67.088V65.3906H66.7914V67.2659Z" fill="#19191C"/>
<path d="M66.2666 65.511C66.2666 65.5417 66.2918 65.567 66.3227 65.567H67.5282C67.543 65.5669 67.5572 65.561 67.5677 65.5505C67.5782 65.54 67.5842 65.5258 67.5843 65.511V65.2947H66.2666V65.511ZM36.0845 65.4407C34.1282 65.6229 31.0929 65.4543 31.0929 65.4543C30.7569 65.4452 30.8977 65.0205 30.8977 65.0205L32.9712 55.4627C33.1615 54.6122 32.2769 54.3132 32.2769 54.3132C32.0213 54.2271 32.0749 53.9813 32.0749 53.9813C32.273 52.8045 32.4722 52.8489 32.4722 52.8489H43.3073C43.6891 52.8489 43.6032 53.15 43.6032 53.15C43.6032 53.15 43.1881 55.1655 42.8733 56.3067C42.8083 56.5976 42.4919 56.5782 42.4919 56.5782H41.617C41.2287 56.5863 41.2499 56.1887 41.2499 56.1887V55.7806C41.2499 54.8772 40.1843 54.9212 40.1843 54.9212H37.412L36.6807 58.2194C36.6807 58.2194 36.6292 58.3172 36.7591 58.3172H40.5792C41.0208 58.3067 40.9123 58.723 40.9123 58.723C40.6469 59.8743 40.5049 60.3571 40.4473 60.5272C40.4473 60.5272 40.4392 60.6244 40.2525 60.6254C39.7594 60.6371 38.172 60.6668 36.1471 60.6262L35.7619 62.363C35.7619 62.363 35.6764 62.6894 35.6768 63.1096C35.6768 63.1096 35.6625 63.6135 36.1336 63.8846C36.1579 63.9009 36.3617 64.0234 36.4148 64.0721C36.4774 64.1228 36.4716 64.1739 36.4716 64.1739C36.4886 64.6613 36.2871 65.1682 36.2035 65.3561C36.1945 65.3806 36.1783 65.4017 36.1571 65.4168C36.1358 65.4319 36.1105 65.4402 36.0845 65.4407ZM22.8792 52.8881C22.8792 52.8881 22.4608 52.8491 22.0578 52.8491H17.3779C17.053 52.8491 16.9928 52.9895 16.9928 52.9895C16.8953 53.1419 16.8237 53.4144 16.7282 53.9815C16.7282 53.9815 16.6849 54.2279 16.9302 54.3134C16.9302 54.3134 17.8148 54.6124 17.6245 55.4629L16.3167 61.6957C15.9017 63.9915 14.8429 64.0256 14.8429 64.0256C14.5098 64.0613 14.4529 64.3389 14.4529 64.3389L14.2751 65.0165C14.1789 65.3391 14.3522 65.3854 14.3522 65.3854C14.3522 65.3854 14.6056 65.508 15.9019 65.508L17.7486 65.5165C19.2752 65.5165 20.4102 65.4751 20.4102 65.4751C20.8364 65.465 20.9207 65.2427 20.9207 65.2427C21.0043 65.0914 21.0972 64.451 21.0887 64.1601C21.0887 64.1601 21.0948 64.1082 21.0318 64.0583C20.9788 64.0096 20.775 63.887 20.7502 63.8704C20.2819 63.6254 20.3011 63.3424 20.3011 63.3424C20.2972 63.0008 20.3867 62.5959 20.3867 62.5959L22.0196 55.1511C22.1235 54.5806 22.6952 54.371 22.6952 54.371C23.0649 54.2651 23.136 53.9247 23.136 53.9247L23.2942 53.2186C23.294 53.2184 23.4022 52.9314 22.8792 52.8881Z" fill="#19191C"/>
<path d="M31.3648 53.3168L31.2155 53.9449C31.1559 54.2651 30.7618 54.2938 30.7618 54.2938C29.8089 54.4612 29.4317 54.7815 29.4317 54.7815C29.4317 54.7815 25.6863 57.7806 25.0049 58.4081C25.0049 58.4081 24.878 58.501 24.9647 58.6216C24.9647 58.6216 27.7273 62.5232 28.6529 63.5335C28.6529 63.5335 29.021 63.9775 29.6398 64.0549C29.6398 64.0549 30.237 64.0951 30.1303 64.4931C30.1303 64.4931 30.0307 64.9712 29.9095 65.2999C29.8547 65.4492 29.7555 65.4508 29.7555 65.4508C29.2038 65.5153 26.5049 65.467 26.5049 65.467C24.4075 65.467 23.1679 63.542 23.1679 63.542C23.1679 63.542 21.9704 62.022 20.8496 59.5089L21.1369 58.7079C21.1369 58.7079 24.5794 55.9202 25.7113 54.8659C25.7113 54.8659 26.1374 54.5562 25.6113 54.3384C25.256 54.1605 25.378 53.8162 25.378 53.8162C25.4334 53.4665 25.5433 53.0772 25.5433 53.0772C25.5835 52.8823 25.8887 52.8946 25.8887 52.8946C25.8887 52.8946 26.8942 52.8492 27.4546 52.8492H29.0095C30.0491 52.8492 31.0109 52.9081 31.0109 52.9081C31.0109 52.9081 31.4745 52.8946 31.3648 53.3168ZM54.2989 64.7916C54.5367 63.9407 54.5839 63.2054 54.5839 63.2054C54.6353 62.764 54.1027 62.9456 54.1027 62.9456C54.1027 62.9456 52.5575 63.3413 51.5779 63.3413C46.6224 63.3413 47.1499 59.2149 47.1499 59.2149C47.3947 56.7277 48.8834 54.7305 51.6155 54.674C52.7379 54.6509 53.4151 55.3418 53.4922 56.4497C53.4922 56.4497 53.4852 56.8107 53.8743 56.8107H54.5918C55.009 56.8107 55.0759 56.3517 55.0759 56.3517C55.3011 55.4168 55.6599 53.631 55.6599 53.631C55.7625 53.1696 55.3571 53.0746 55.3571 53.0746C54.6007 52.8134 53.3062 52.658 51.8044 52.658C45.8691 52.658 43.2124 55.6726 42.7998 59.2137C42.3847 62.7713 44.7012 65.6587 49.8072 65.6587C51.5224 65.6587 52.8478 65.4829 53.8801 65.165C53.8801 65.165 54.2146 65.0937 54.2989 64.7916ZM46.74 18.9629C46.74 18.9629 46.5693 18.9021 46.6626 18.6728L47.1755 16.989C47.6024 15.7665 47.4846 15.1609 47.4846 15.1609C47.4846 15.1609 46.7871 14.7856 46.7378 13.7955C46.7378 13.7955 45.9073 3.23047 34.7191 3.23047C31.6491 3.23047 28.0127 4.97326 28.0127 4.97326C28.0127 4.97326 27.7331 5.10039 27.662 5.50891C27.662 5.50891 27.6004 5.85604 27.2746 6.24258C27.0925 6.47011 26.7572 6.72615 26.7572 6.72615C26.4136 6.9713 25.7176 7.3321 24.5297 7.41151C24.5297 7.41151 24.1811 7.41052 24.4136 7.77666C24.4136 7.77666 24.8027 8.46399 25.578 8.8935C25.578 8.8935 25.9004 9.05034 25.3821 9.09113C25.3821 9.09113 24.8568 9.14182 24.2805 9.16559C23.3053 9.20578 23.0488 9.71173 22.9815 9.98995C22.9815 9.98995 22.9338 10.1793 23.0112 10.3559C23.134 10.6365 23.4322 11.0409 23.4322 11.0409C23.4322 11.0409 23.7445 11.4763 23.7225 11.9951C23.7047 12.4133 23.237 12.7989 23.237 12.7989C23.237 12.7989 22.4389 13.3736 22.4389 13.9262C22.4389 13.9262 22.4267 14.23 22.4916 14.5672C22.4916 14.5672 22.8877 16.6053 23.49 18.6845C23.49 18.6845 23.5653 18.8803 23.4015 18.8805C23.4015 18.8805 22.6552 18.9437 22.6552 20.1453C22.6552 20.9356 22.9461 22.0364 22.9461 22.0364C22.9461 22.0364 23.7477 24.6509 23.8746 25.2474C23.9116 25.381 23.9192 25.5018 23.934 25.6012C24.0154 26.2341 24.3774 28.2824 25.6435 28.2167C25.6435 28.2167 26.0317 28.1844 26.0317 28.4246C26.0317 28.4246 26.1354 30.1563 26.7554 31.4247C26.7554 31.4247 26.9245 31.6926 26.9667 32.2985C26.9667 32.2985 27.1388 34.4805 30.1658 36.935L32.2656 38.5275C32.2656 38.5275 30.659 38.6123 29.9545 38.6826C29.9545 38.6826 29.6087 38.6802 29.5881 39.1756C29.5881 39.1756 29.4755 40.1762 29.5741 41.205C29.5741 41.205 29.5802 41.6978 30.166 41.6982C30.166 41.6982 32.0967 41.6701 33.7878 41.6137C33.7878 41.6137 34.023 41.5848 33.9005 41.8814C33.9005 41.8814 32.6602 45.3205 31.0115 48.5613C31.0115 48.5613 30.7588 48.9643 31.0891 48.9902C31.0891 48.9902 31.8218 49.0656 32.6185 49.5407C32.6185 49.5407 32.8555 49.6498 32.9701 49.4031C32.9701 49.4031 34.2545 46.6656 34.9886 44.3412C34.9886 44.3412 35.1415 45.0442 34.9733 49.9688C34.9733 49.9688 34.9296 50.3967 35.3288 50.2823C35.3288 50.2823 35.9678 50.0839 36.7015 50.1064C37.0833 50.1183 37.0839 49.7393 37.0839 49.7393C37.4051 45.0294 36.304 41.7109 36.304 41.7109C36.304 41.7109 36.2177 41.5551 36.4848 41.5418C37.9122 41.4717 39.8566 41.6561 39.8566 41.6561C40.2978 41.7131 40.2684 41.2822 40.2684 41.2822C40.3285 40.5756 40.2837 38.9954 40.2837 38.9954C40.3384 38.3483 37.9112 38.4978 37.9112 38.4978C37.7118 38.5022 37.8969 38.3923 37.8969 38.3923C37.8969 38.3923 39.6166 37.3867 41.2211 35.736C41.2211 35.736 42.5265 34.7302 43.2865 32.4425C43.2865 32.4425 44.0265 30.4755 44.0265 28.4872C44.0265 28.4872 44.0111 28.1468 44.4782 28.1747C44.4782 28.1747 45.4249 28.3016 45.7933 27.0206C45.7933 27.0206 46.4982 25.0349 47.1446 22.2552C47.1446 22.2552 47.4523 20.9655 47.4664 20.1817C47.482 19.2796 46.74 18.9629 46.74 18.9629ZM25.2386 24.9703C24.8271 25.019 24.6556 24.3353 24.6556 24.3353L24.0609 22.1473C24.0609 22.1473 23.8558 21.3774 23.8186 20.9178C23.7401 19.9481 24.4158 19.9542 24.4158 19.9542C25.0508 19.9542 25.077 20.6699 25.077 20.6699C25.077 20.6699 25.0841 20.8485 25.0019 21.0105C25.0019 21.0105 24.917 21.158 24.9211 21.4608C24.9259 21.8071 25.2099 23.3311 25.2099 23.3311C25.3657 24.0355 25.3831 24.5317 25.3831 24.5317C25.3932 24.985 25.2386 24.9703 25.2386 24.9703ZM25.3748 17.3372C25.3748 17.3372 25.3532 18.1346 25.1914 18.3075C25.1914 18.3075 24.9661 18.5655 24.7594 18.5655C24.6508 18.5655 24.6308 18.4691 24.6308 18.4691C24.6308 18.4691 23.7898 15.655 23.7898 14.7276C23.7898 14.0377 24.5661 13.024 24.5661 13.024C24.5661 13.024 25.195 12.506 24.6415 11.2343L24.4475 10.7814C24.4475 10.7814 24.2994 10.527 24.6415 10.5119C24.6415 10.5119 26.5715 10.3072 27.984 9.59549C27.984 9.59549 28.9327 9.04558 29.957 9.04558C29.957 9.04558 30.5697 9.02855 30.5531 9.2244C30.5464 9.30361 30.3883 9.34757 30.3883 9.34757C30.3883 9.34757 28.4798 9.99451 27.5527 11.9353C27.5527 11.9353 27.3453 12.3563 27.0263 12.6852C26.9683 12.7417 26.8228 12.8526 26.8228 12.8526C26.6229 13.0025 26.4853 13.1714 26.4853 13.1714C26.3128 13.3801 26.076 13.7407 25.9247 14.275C25.9247 14.2751 25.3748 16.0326 25.3748 17.3372ZM26.8661 18.8726C26.8661 19.0154 26.7374 19.131 26.5784 19.131C26.5166 19.131 26.4732 19.1156 26.4732 19.1156C26.4732 19.1156 26.2721 19.0382 26.1546 19.0289C26.1546 19.0289 25.8916 18.9855 25.8916 18.871V18.8649C25.8916 18.7504 26.1546 18.7071 26.1546 18.7071C26.2722 18.6978 26.4732 18.6203 26.4732 18.6203C26.4732 18.6203 26.5166 18.6049 26.5784 18.6049C26.7374 18.6049 26.8661 18.7205 26.8661 18.8633V18.8726ZM26.9319 23.7927C26.9319 23.7927 26.798 23.2493 27.0988 23.2984C27.0988 23.2984 27.2899 23.3143 27.4905 23.4075C27.4905 23.4075 28.1067 23.703 28.3123 23.703C28.3481 23.7105 28.5818 23.6772 28.6396 23.2857C28.6396 23.2857 28.6699 23.1289 28.4148 23.0097C28.4148 23.0097 27.2529 22.5024 27.2529 21.7768C27.2529 21.7768 27.2592 21.5071 27.4839 21.5071C27.4839 21.5071 27.5994 21.4879 27.7279 21.6099C27.7279 21.6099 28.1002 21.963 28.3249 21.963C28.416 21.9715 28.5739 21.9436 28.7808 21.6804C28.7808 21.6804 29.2638 21.0384 30.1355 21.0384C30.3988 21.0384 31.0664 21.1667 31.0664 21.1667C31.0664 21.1667 31.6186 21.2245 32.2157 21.1281C32.2157 21.1281 32.8062 20.9869 32.466 21.3336C32.466 21.3336 32.267 21.5198 32.267 21.6097C32.267 21.7703 32.3824 21.9051 32.3824 21.9051C32.3824 21.9051 32.8254 22.637 31.5222 23.0992C31.5222 23.0992 31.0119 23.2919 30.4565 23.2919C30.4565 23.2919 30.1933 23.2772 30.1933 23.5101V23.7028C30.1933 23.7028 30.1675 23.9212 30.5143 23.9212H31.2977C31.4687 23.9212 31.3747 24.0434 31.3747 24.0434C31.3747 24.0434 31.142 24.4408 31.0216 24.8139C30.944 25.0875 30.7519 25.1604 30.7519 25.1604C30.7519 25.1604 30.0586 25.4238 29.3331 25.9052C29.3331 25.9052 28.9222 26.2068 28.4214 26.2068C27.4329 26.2066 26.9319 23.7927 26.9319 23.7927ZM28.7572 19.3695C28.7374 19.395 28.4339 19.597 28.0826 19.8186C27.7311 20.0402 27.4123 20.2326 27.374 20.2467C27.3358 20.2606 27.2723 20.2701 27.2329 20.2677C27.1934 20.2655 27.1422 20.2493 27.119 20.2319C27.0958 20.2144 27.0653 20.1707 27.0515 20.1348C27.0376 20.099 27.0261 20.0392 27.0261 20.0019C27.0261 19.9649 27.0414 19.8861 27.0598 19.8269C27.0784 19.7679 27.1352 19.6643 27.1863 19.5972C27.2372 19.5299 27.3273 19.4368 27.3865 19.3905C27.4457 19.3441 27.5661 19.2815 27.6542 19.2514C27.7424 19.2213 27.8828 19.1899 27.9663 19.1817C28.0499 19.1736 28.2148 19.1641 28.3333 19.1607C28.4515 19.1572 28.5758 19.1582 28.6095 19.1629C28.6432 19.1675 28.6954 19.1885 28.7255 19.2093C28.7556 19.2301 28.7832 19.2643 28.7867 19.2851C28.7901 19.3061 28.7768 19.3439 28.7572 19.3695ZM29.1261 19.9008C29.263 19.8219 29.4897 19.6958 29.6301 19.6204C29.7703 19.5451 29.9545 19.4558 30.0392 19.4221C30.1257 19.388 30.2136 19.3577 30.3028 19.3314C30.3632 19.3152 30.4608 19.2952 30.52 19.2871C30.5792 19.279 30.6721 19.2734 30.7266 19.2746C30.781 19.2758 30.8721 19.2825 30.9289 19.2893C30.9858 19.2962 31.0901 19.3257 31.1608 19.3546C31.2315 19.3837 31.3246 19.4368 31.3676 19.4728C31.4103 19.5089 31.4721 19.5667 31.5044 19.6013C31.5369 19.6362 31.5796 19.693 31.5992 19.7279C31.619 19.7627 31.6361 19.8055 31.6371 19.8227C31.6383 19.8402 31.6345 19.8705 31.6287 19.8903C31.623 19.9099 31.6002 19.9309 31.5783 19.9366C31.5563 19.9423 31.4984 19.9481 31.4497 19.9493C31.401 19.9503 31.2729 19.9485 31.165 19.9451C31.0571 19.9417 30.9006 19.9408 30.8171 19.9429C30.7335 19.9453 30.5873 19.9623 30.4923 19.981C30.3972 19.9996 30.2624 20.0318 30.1929 20.0526C30.1232 20.0734 29.9658 20.1324 29.8428 20.1833C29.7198 20.2344 29.5406 20.3083 29.4442 20.3479C29.3477 20.3875 29.216 20.4404 29.1511 20.4659C29.0861 20.4915 28.9943 20.5208 28.9465 20.5313C28.8988 20.5418 28.8277 20.553 28.7883 20.5566C28.7489 20.5602 28.6834 20.5602 28.643 20.5566C28.6024 20.553 28.5481 20.5378 28.5228 20.5227C28.4974 20.5077 28.4697 20.4774 28.4616 20.4554C28.4535 20.4334 28.4489 20.4029 28.4511 20.3881C28.4533 20.373 28.4657 20.3483 28.4784 20.3332C28.4911 20.3182 28.5859 20.2471 28.6893 20.1752C28.8317 20.0787 28.9774 19.9871 29.1261 19.9008ZM32.587 25.0404C32.587 25.0404 32.6571 25.2058 32.6632 25.3295C32.6767 25.6008 32.4789 25.5996 32.4789 25.5996C31.8598 25.6224 31.8753 24.7101 31.8753 24.7101C31.8723 23.9022 32.3169 23.9063 32.3169 23.9063C32.3169 23.9063 32.5646 23.8873 32.6759 24.1319C32.6759 24.1319 32.5361 24.3351 32.5361 24.6782C32.5361 24.92 32.587 25.0404 32.587 25.0404ZM31.3377 34.5255C29.8081 34.5255 28.5042 32.4064 28.5042 32.4064C28.5042 32.4064 27.2748 30.6425 27.2748 29.1787C27.2748 29.1787 27.2467 28.3624 27.9317 27.8933C27.9317 27.8933 28.2505 27.6775 28.4945 27.6775C28.4945 27.6775 28.8513 27.6212 28.8699 28.2311C28.8699 28.2311 29.0857 31.2712 29.977 32.4064C29.977 32.4064 30.1608 32.6403 30.3806 32.1156C30.3806 32.1156 30.5173 31.805 30.6808 31.5714C30.6808 31.5714 30.8392 31.3183 30.9436 31.6934C31.2468 32.7833 31.666 33.992 31.666 33.992C31.8856 34.5524 31.3377 34.5255 31.3377 34.5255ZM31.9676 28.629C30.6687 28.629 30.1553 28.2175 30.1553 28.2175C30.1553 28.2175 29.8891 28.0606 30.2887 27.8505C30.2887 27.8505 31.3226 27.2836 31.7785 26.9834C31.7785 26.9834 32.3699 26.5943 32.7369 26.5943C33.0351 26.5943 33.4795 26.8834 33.4795 26.8834C33.4795 26.8834 34.2244 27.3614 34.8803 27.3614C35.7646 27.3614 36.0478 27.028 36.0478 27.028C36.0478 27.028 36.392 26.6442 36.7734 26.5414C36.9342 26.4981 37.2623 26.2878 37.2623 26.2878C37.6769 26.0959 37.8563 26.399 37.8563 26.399L38.4009 27.0303C39.0413 27.7791 39.6199 27.9214 39.6199 27.9214C39.9819 28.0452 39.6817 28.2494 39.6817 28.2494C39.6817 28.2494 39.2114 28.622 37.471 28.622C36.6351 28.622 35.2359 28.162 35.2359 28.162C34.8426 28.0111 34.4579 28.1953 34.4579 28.1953C34.4579 28.1953 33.4844 28.629 31.9676 28.629ZM41.416 20.6683C41.416 20.6683 41.4659 20.7047 41.4411 20.7574C41.4411 20.7574 41.4205 20.8364 41.2427 20.8364C40.7805 20.8364 39.9249 20.1433 39.9249 20.1433C39.9249 20.1433 39.7071 19.9685 39.3185 19.9685C39.1504 19.9685 38.9011 20.0069 38.9011 20.0069C38.6781 20.0552 38.4074 20.0542 38.4074 20.0542C38.0346 20.0542 38.2815 19.8546 38.2815 19.8546C38.2815 19.8546 38.8607 19.3806 39.4524 19.3926C39.8778 19.4011 40.2453 19.7548 40.2453 19.7548C40.2453 19.7548 41.0168 20.4162 41.416 20.6683ZM40.7803 19.1602H41.3162C41.3162 19.1602 42.2305 19.0728 42.2305 19.8067C42.2305 19.8067 42.2594 20.197 41.8984 20.197C41.4207 20.197 40.6463 19.399 40.6463 19.399C40.3797 19.1423 40.7803 19.1602 40.7803 19.1602ZM37.1264 29.4468C37.1179 29.466 37.0817 29.4951 37.0458 29.5116C37.01 29.528 36.8403 29.5751 36.6688 29.6161C36.4977 29.6573 36.2082 29.7133 36.0256 29.7407C35.8433 29.768 35.5763 29.7995 35.4326 29.8104L34.9048 29.8504C34.7583 29.8613 34.5502 29.8704 34.4424 29.8704C34.3347 29.8704 34.1583 29.8615 34.0506 29.8504C33.9426 29.8393 33.7911 29.7989 33.7137 29.7607C33.6363 29.7223 33.5272 29.6555 33.4713 29.6124C33.4155 29.5692 33.3537 29.5145 33.3341 29.4912C33.3143 29.4676 33.2949 29.4284 33.2909 29.4036C33.287 29.3789 33.2967 29.3521 33.3125 29.3444C33.3284 29.3367 33.3573 29.3262 33.3767 29.3213C33.3961 29.3163 33.5252 29.3034 33.6634 29.2923C33.8016 29.2813 34.0573 29.2634 34.2314 29.2525C34.4056 29.2417 34.7698 29.2325 35.0407 29.2325C35.3116 29.2325 35.7165 29.2415 35.9405 29.2525C36.1644 29.2634 36.4696 29.2836 36.6189 29.2975C36.7682 29.3112 36.9332 29.3314 36.986 29.3423C37.0385 29.3531 37.0949 29.3733 37.1116 29.3872C37.1282 29.4011 37.1346 29.4276 37.1264 29.4468ZM44.0257 26.7086C43.8218 26.5691 43.6885 26.7361 43.6885 26.7361C43.482 26.9632 43.1653 27.5276 43.1653 27.5276C43.0481 27.6985 43.0318 28.0577 43.0318 28.0577C42.996 29.1355 42.7511 34.5069 38.2249 36.0291C38.2249 36.0291 37.7872 36.1887 37.5122 35.8601C37.3716 35.6976 37.1868 35.6445 37.1868 35.6445C37.148 35.7742 37.1433 36.3473 37.1433 36.3473C37.1433 36.9263 36.8583 37.2415 36.8583 37.2415C36.0646 38.0328 35.9512 38.9525 35.9512 38.9525C35.9512 38.9525 35.9223 39.3232 35.5716 39.1295C35.5716 39.1295 35.0716 38.8746 34.5177 38.2544C34.5177 38.2544 33.2288 36.8806 33.2288 35.6671C33.2288 35.0419 33.5565 34.1102 33.5565 34.1102C33.7761 33.4716 33.663 32.6464 33.663 32.6464C33.663 32.6464 33.5565 32.1807 33.7761 32.1807C33.7761 32.1807 33.9207 32.151 34.0888 32.4866C34.1745 32.6738 34.3149 32.8526 34.3149 32.8526C34.3149 32.8526 34.5745 33.2318 34.5745 32.327C34.5745 31.5508 34.1553 31.4755 34.1553 31.4755C34.1553 31.4755 33.568 31.3342 33.5834 31.13C33.5834 31.13 33.5092 30.7371 34.7282 30.7371H34.8365C34.8365 30.7371 35.3912 30.7646 35.8876 30.7646C35.8876 30.7646 36.8803 30.8108 37.8791 30.4644C37.8791 30.4644 38.2278 30.3318 38.4754 30.3225C38.4754 30.3225 39.2427 30.2977 39.2861 31.0805C39.2861 31.0805 39.3076 31.3249 39.3108 31.4643V31.5161C39.3108 31.5161 39.2892 32.4514 39.5766 32.4514C39.9482 32.4514 40.038 31.6708 40.038 31.6708C40.038 31.6708 40.1853 30.7248 40.533 30.304C40.533 30.304 41.2338 29.6153 41.2338 28.3929V27.9107C41.2338 27.9107 41.2221 27.5452 41.1225 27.2575C41.0594 27.0141 40.8063 26.8981 40.8063 26.8981C40.6356 26.8175 40.2522 26.6238 40.0974 26.4398C40.0974 26.4398 39.3177 25.5747 39.0162 25.0535C39.0162 25.0535 38.5902 24.3527 37.6383 24.0856C37.6383 24.0856 37.0627 23.9339 37.3371 24.5931C37.3371 24.5931 37.5948 25.1697 37.1064 25.4632C37.1064 25.4632 36.3128 26.0299 35.3712 26.0299C34.189 26.0299 33.5545 25.1228 33.5545 25.1228C33.5545 25.1228 33.0604 24.4965 33.4858 23.5576C33.4858 23.5576 33.9458 22.5845 33.9987 22.1457C33.9987 22.1457 34.1096 21.297 34.2209 20.7445C34.2209 20.7445 34.2983 20.1109 34.7654 20.1101C35.4029 20.1091 35.4316 20.5172 35.4316 20.5172C35.4316 20.5172 35.5698 21.3342 35.9551 21.7174C35.9551 21.7174 36.0805 21.8416 36.2619 21.8443C36.2619 21.8443 36.4425 21.8479 36.6161 21.6699C36.6161 21.6699 36.851 21.4673 36.7217 21.2257C36.7217 21.2257 36.529 20.8639 36.6435 20.8051C36.6435 20.8051 36.727 20.7618 36.8841 20.8538C36.8841 20.8538 37.6599 21.2729 38.6734 21.2729C38.6734 21.2729 39.1589 21.2879 39.8799 21.1146C39.8799 21.1146 40.5637 20.9693 40.7092 21.4178C40.7092 21.4178 40.8237 21.7736 41.2415 21.7891C41.2415 21.7891 41.8108 21.7859 41.817 22.0489C41.8299 22.5964 41.2756 22.9028 41.2756 22.9028C41.2756 22.9028 41.0992 23.0699 40.2237 23.2956C40.2237 23.2956 39.9174 23.3699 39.9235 23.5741C39.9235 23.5741 39.9112 23.9501 40.3784 23.9485C41.2572 23.9454 41.7522 23.5277 41.7522 23.5277C41.7522 23.5277 42.532 23.0699 42.9132 21.0732L43.0839 20.2764C43.0839 20.2764 43.1408 19.8021 43.5677 19.6788L44.1083 19.5269C44.1083 19.5269 44.4717 19.434 44.4687 19.84C44.4687 19.84 44.5065 20.9214 44.4497 21.6897C44.4497 21.6897 44.3818 22.2838 44.7059 22.0786C44.7059 22.0786 45.3414 21.7182 45.2845 21.2154C45.2845 21.2154 45.2277 20.9214 45.2277 20.7031C45.2277 20.7031 45.2049 19.8857 45.7968 19.9063C45.7968 19.9063 46.6343 19.8487 46.2806 21.282C46.2806 21.282 45.781 23.4873 45.1958 25.5042C45.1958 25.5042 44.7746 27.1757 44.0257 26.7086ZM43.9887 18.893C43.9887 19.0075 43.7257 19.0437 43.7257 19.0437C43.6081 19.0499 43.4071 19.1217 43.4071 19.1217C43.4071 19.1217 43.3637 19.136 43.302 19.1344C43.1429 19.1301 43.0142 19.0108 43.0142 18.8681V18.8588C43.0142 18.716 43.1429 18.6039 43.302 18.6083C43.3637 18.6099 43.4071 18.6265 43.4071 18.6265C43.4071 18.6265 43.6083 18.7095 43.7257 18.7217C43.7257 18.7217 43.9887 18.7722 43.9887 18.8867V18.893ZM45.2883 16.696C45.2883 16.696 45.2327 17.1348 45.0764 17.1348C44.9432 17.1348 44.8921 16.8958 44.8921 16.8958C44.1354 13.945 43.1952 12.4535 43.1952 12.4535C42.8742 11.9432 42.8819 12.6401 42.8819 12.6401L42.8604 14.5395C42.8604 14.5395 44.1465 16.15 44.1465 17.955L44.1443 18.0134C44.1438 18.0788 44.1377 18.1441 44.1261 18.2085C44.1115 18.2796 44.0136 18.2496 44.0136 18.2496C43.9186 18.2334 43.8216 18.2201 43.8216 18.2201C41.6136 17.8774 38.3294 18.1005 38.3294 18.1005C36.99 18.1255 35.8825 19.1392 35.8825 19.1392C35.6565 19.3508 35.3524 19.257 35.3524 19.257C35.3524 19.257 35.0432 19.1786 34.8617 19.1786C34.6409 19.1786 34.3906 19.2522 34.3906 19.2522C34.2236 19.3061 34.089 19.3109 34.089 19.3109C33.845 19.3109 33.37 18.8871 33.37 18.8871C32.4107 18.0762 31.3028 18.1168 31.3028 18.1168L26.4237 18.0782C26.4237 18.0782 26.338 16.8574 27.1297 16.6146C27.1297 16.6146 27.6287 16.4599 27.6972 15.9987C27.6972 15.9987 27.8099 15.1379 28.2851 13.6102C28.2851 13.6102 29.1582 10.0664 32.2141 10.0664C33.5711 10.0664 34.705 10.67 34.705 10.67C34.705 10.67 35.0242 10.8609 35.2306 10.6814L35.805 10.1585C35.9815 9.99035 35.8082 9.82322 35.8082 9.82322C35.8082 9.82322 33.7949 7.43012 31.2701 7.43012L31.2042 7.41368C29.3725 7.41368 27.4275 8.25369 27.4275 8.25369C27.7802 7.22438 30.42 6.19506 30.42 6.19506C31.6113 5.71862 30.401 5.66139 30.401 5.66139C29.4315 5.60753 30.1723 5.24198 30.1723 5.24198C30.1723 5.24198 31.9426 4.29464 34.7933 4.29464C39.2241 4.29464 42.4667 7.28972 42.4667 7.28972C46.4022 10.681 45.2883 16.696 45.2883 16.696Z" fill="#19191C"/>
</g>
<defs>
<clipPath id="clip0_0_883">
<rect width="69.888" height="70" fill="white"/>
</clipPath>
</defs>
</svg>
