<svg width="115" height="44" viewBox="0 0 115 44" fill="none" xmlns="http://www.w3.org/2000/svg">
<path d="M46.9956 21.4735C46.9956 19.6388 47.392 18.007 48.1849 16.578C48.9778 15.1314 50.079 14.0111 51.4886 13.2173C52.9158 12.4058 54.528 12 56.3252 12C58.5277 12 60.413 12.5822 61.9811 13.7465C63.5493 14.9109 64.5976 16.4986 65.1262 18.5097H60.1575C59.7875 17.7335 59.2589 17.1425 58.5717 16.7368C57.9022 16.331 57.1357 16.1281 56.2723 16.1281C54.8804 16.1281 53.7527 16.6133 52.8894 17.5836C52.026 18.5539 51.5943 19.8505 51.5943 21.4735C51.5943 23.0966 52.026 24.3932 52.8894 25.3635C53.7527 26.3338 54.8804 26.8189 56.2723 26.8189C57.1357 26.8189 57.9022 26.6161 58.5717 26.2103C59.2589 25.8045 59.7875 25.2136 60.1575 24.4373H65.1262C64.5976 26.4485 63.5493 28.0362 61.9811 29.2006C60.413 30.3473 58.5277 30.9206 56.3252 30.9206C54.528 30.9206 52.9158 30.5237 51.4886 29.7298C50.079 28.9183 48.9778 27.7981 48.1849 26.3691C47.392 24.9401 46.9956 23.3083 46.9956 21.4735Z" fill="#19191C"/>
<path d="M73.0212 31C71.5764 31 70.2726 30.6913 69.1097 30.0738C67.9644 29.4564 67.057 28.5743 66.3874 27.4276C65.7355 26.2809 65.4095 24.9401 65.4095 23.4053C65.4095 21.8881 65.7443 20.5562 66.4138 19.4095C67.0834 18.2451 67.9996 17.3542 69.1625 16.7368C70.3254 16.1193 71.6293 15.8106 73.0741 15.8106C74.5189 15.8106 75.8228 16.1193 76.9857 16.7368C78.1486 17.3542 79.0648 18.2451 79.7343 19.4095C80.4039 20.5562 80.7387 21.8881 80.7387 23.4053C80.7387 24.9225 80.3951 26.2632 79.7079 27.4276C79.0384 28.5743 78.1133 29.4564 76.9328 30.0738C75.7699 30.6913 74.466 31 73.0212 31ZM73.0212 27.0836C73.8846 27.0836 74.6158 26.766 75.2149 26.1309C75.8316 25.4958 76.1399 24.5873 76.1399 23.4053C76.1399 22.2233 75.8404 21.3148 75.2413 20.6797C74.6599 20.0446 73.9375 19.727 73.0741 19.727C72.1931 19.727 71.4619 20.0446 70.8804 20.6797C70.299 21.2971 70.0083 22.2057 70.0083 23.4053C70.0083 24.5873 70.2902 25.4958 70.854 26.1309C71.4355 26.766 72.1579 27.0836 73.0212 27.0836Z" fill="#19191C"/>
<path d="M80.6519 23.4053C80.6519 21.8705 80.9603 20.5297 81.577 19.383C82.2113 18.2363 83.0835 17.3542 84.1935 16.7368C85.3212 16.1193 86.6074 15.8106 88.0522 15.8106C89.9023 15.8106 91.444 16.2957 92.6774 17.266C93.9284 18.2363 94.7477 19.6035 95.1353 21.3677H90.3251C89.9199 20.2386 89.1358 19.6741 87.9729 19.6741C87.1448 19.6741 86.4841 20.0005 85.9907 20.6532C85.4973 21.2883 85.2507 22.2057 85.2507 23.4053C85.2507 24.6049 85.4973 25.5311 85.9907 26.1838C86.4841 26.8189 87.1448 27.1365 87.9729 27.1365C89.1358 27.1365 89.9199 26.572 90.3251 25.4429H95.1353C94.7477 27.1718 93.9284 28.5302 92.6774 29.5181C91.4264 30.506 89.8847 31 88.0522 31C86.6074 31 85.3212 30.6913 84.1935 30.0738C83.0835 29.4564 82.2113 28.5743 81.577 27.4276C80.9603 26.2809 80.6519 24.9401 80.6519 23.4053Z" fill="#19191C"/>
<path d="M95.0684 23.3788C95.0684 21.8617 95.3503 20.5297 95.9142 19.383C96.4956 18.2363 97.2797 17.3542 98.2664 16.7368C99.2531 16.1193 100.354 15.8106 101.57 15.8106C102.61 15.8106 103.517 16.0223 104.292 16.4457C105.085 16.8691 105.693 17.4248 106.116 18.1128V16.0223H110.635V30.7883H106.116V28.6978C105.675 29.3858 105.059 29.9415 104.266 30.3649C103.491 30.7883 102.583 31 101.544 31C100.346 31 99.2531 30.6913 98.2664 30.0738C97.2797 29.4387 96.4956 28.5478 95.9142 27.4011C95.3503 26.2368 95.0684 24.896 95.0684 23.3788ZM106.116 23.4053C106.116 22.2762 105.799 21.3853 105.165 20.7326C104.548 20.0799 103.79 19.7535 102.892 19.7535C101.993 19.7535 101.227 20.0799 100.592 20.7326C99.9755 21.3677 99.6672 22.2498 99.6672 23.3788C99.6672 24.5079 99.9755 25.4076 100.592 26.078C101.227 26.7307 101.993 27.0571 102.892 27.0571C103.79 27.0571 104.548 26.7307 105.165 26.078C105.799 25.4253 106.116 24.5344 106.116 23.4053Z" fill="#19191C"/>
<path d="M37.7078 14.8728C37.0466 13.3282 36.1716 11.8887 35.1094 10.5986C33.5392 8.63456 31.5798 7.03248 29.3599 5.89786C27.14 4.76324 24.7101 4.12179 22.2301 4.01572C19.7501 3.90965 17.2763 4.34136 14.9713 5.28247C12.6664 6.22357 10.5827 7.65271 8.8574 9.47584C7.13205 11.2989 5.80417 13.4747 4.96117 15.8599C4.11816 18.2451 3.77913 20.7857 3.9664 23.3144C4.15368 25.8431 4.863 28.3026 6.04769 30.531C7.23238 32.7596 8.86557 34.7064 10.8398 36.2435C12.1065 37.2495 13.5063 38.0673 14.9973 38.6726C17.0878 39.5479 19.3252 39.9987 21.5844 40C26.2478 39.9895 30.7169 38.0903 34.0122 34.7188C37.3073 31.3472 39.1596 26.7785 39.163 22.0141C39.1663 19.5564 38.6709 17.1248 37.7078 14.8728ZM21.5714 7.66511C23.6003 7.6649 25.6046 8.11793 27.4439 8.99249C26.9954 9.19049 26.5238 9.32879 26.0407 9.40399C24.4513 9.63905 22.9789 10.393 21.8432 11.5532C20.7075 12.7135 19.9696 14.2178 19.7395 15.8418C19.6385 16.7525 19.233 17.5997 18.5916 18.2406C17.9502 18.8815 17.1121 19.2765 16.2186 19.3593C14.6291 19.5944 13.1566 20.3483 12.021 21.5086C10.8854 22.6689 10.1474 24.1732 9.91733 25.7971C9.83942 26.6631 9.47778 27.4769 8.89093 28.1067C7.87838 25.9209 7.42352 23.5088 7.56867 21.0951C7.71382 18.6814 8.45426 16.3444 9.7211 14.3016C10.9879 12.2589 12.74 10.5767 14.8142 9.41174C16.8885 8.24674 19.2175 7.63677 21.5844 7.63856L21.5714 7.66511ZM10.8268 31.3057C10.9827 31.1597 11.1386 31.0269 11.2945 30.8677C12.4504 29.7228 13.1923 28.2114 13.3993 26.5802C13.4832 25.6633 13.8839 24.8069 14.5296 24.1644C15.151 23.5036 15.9873 23.0976 16.8812 23.0229C18.4707 22.7878 19.9431 22.0338 21.0787 20.8736C22.2144 19.7133 22.9523 18.209 23.1824 16.5851C23.2387 15.6261 23.6415 14.7225 24.3128 14.0498C24.9495 13.4018 25.7938 13.0106 26.6904 12.9481C28.1506 12.7428 29.5124 12.0796 30.5881 11.0499C31.8128 12.088 32.8504 13.3369 33.6542 14.74C33.6049 14.8081 33.5482 14.8705 33.4853 14.9259C32.8652 15.5925 32.0299 16.0074 31.1337 16.094C29.5426 16.3249 28.0679 17.0775 26.9315 18.2385C25.7952 19.3995 25.0585 20.9061 24.8325 22.5317C24.7409 23.4455 24.3429 24.2989 23.706 24.9472C23.069 25.5956 22.2323 25.999 21.3375 26.0891C19.7434 26.3223 18.2655 27.0748 17.1232 28.2345C15.9811 29.3944 15.2354 30.8996 14.9973 32.5269C14.9274 33.1756 14.7093 33.7985 14.3607 34.3454C13.0277 33.5367 11.8338 32.5099 10.8268 31.3057ZM21.5714 36.4294C20.2531 36.4308 18.941 36.2431 17.6737 35.8719C18.1073 35.0462 18.3891 34.1464 18.5052 33.2171C18.5963 32.3053 18.9924 31.4536 19.6267 30.8055C20.261 30.1575 21.0947 29.7528 21.9872 29.6597C23.579 29.4273 25.0544 28.6746 26.1926 27.514C27.3308 26.3536 28.0707 24.8477 28.3014 23.222C28.3925 22.3102 28.7886 21.4584 29.4229 20.8104C30.0572 20.1624 30.8909 19.7577 31.7833 19.6646C32.9812 19.5054 34.123 19.0498 35.1094 18.3372C35.6571 20.4582 35.722 22.6792 35.2991 24.8298C34.8762 26.9804 33.9766 29.0036 32.6695 30.7439C31.3625 32.4841 29.6827 33.8955 27.7588 34.8696C25.8351 35.8436 23.7185 36.3545 21.5714 36.363V36.4294Z" fill="#FF5C00"/>
</svg>
