<svg width="82" height="70" viewBox="0 0 82 70" fill="none" xmlns="http://www.w3.org/2000/svg">
<g clip-path="url(#clip0_0_929)">
<path fill-rule="evenodd" clip-rule="evenodd" d="M81.7734 67.9383C81.4133 50.421 78.5914 33.5611 73.8243 20.466C69.0198 7.27401 63.0227 0.0078125 56.9423 0.0078125C53.1639 0.0078125 49.6149 2.75663 46.3887 8.18292C44.3908 11.5484 42.5288 15.9673 40.9098 21.1676C39.2856 15.9673 37.427 11.5484 35.4257 8.18292C32.2029 2.75663 28.6522 0.0078125 24.8739 0.0078125C18.7884 0.0078125 12.7947 7.27401 7.99189 20.466C3.22648 33.5611 0.402904 50.421 0.0427371 67.9366L-0.00143433 69.9923H12.2086L12.2323 68.008C12.7063 31.4103 21.4234 8.19821 24.9741 8.19821C27.3661 8.19821 33.4788 24.2715 34.4064 64.0665L34.454 66.0271H47.3622L47.4081 64.0665C48.334 24.2715 54.4483 8.19651 56.8404 8.19651C60.3928 8.19651 69.1064 31.4086 69.5821 68.0063L69.6076 69.9923H81.8125L81.7734 67.9383Z" fill="#19191C"/>
<path fill-rule="evenodd" clip-rule="evenodd" d="M80.8492 67.9604C80.4925 50.5416 77.6859 33.7955 72.9544 20.7989C68.3674 8.1846 62.53 0.950684 56.9423 0.950684C50.8263 0.950684 45.067 9.44858 40.9098 24.4278C36.7509 9.45028 30.9899 0.952382 24.8705 0.952382C19.2862 0.952382 13.4471 8.1863 8.85663 20.7972C4.1269 33.7938 1.32371 50.5416 0.96694 67.9604L0.944855 69.046H11.2963L11.3081 67.9961C11.7889 30.9074 20.5519 7.2519 24.9741 7.2519C28.7626 7.2519 34.4693 26.9863 35.3323 64.041L35.3595 65.0825H46.4584L46.4822 64.041C47.3452 26.988 53.0552 7.2519 56.8404 7.2519C61.2643 7.2519 70.0272 30.9074 70.5063 67.9961L70.5199 69.046H80.8713L80.8492 67.9604Z" fill="#19191C"/>
<path fill-rule="evenodd" clip-rule="evenodd" d="M24.7583 4.10889V6.20193C18.7221 6.83392 10.7084 33.8311 10.2684 67.9824L6.16217 63.7794V63.674C7.46693 30.1887 16.5934 4.37561 24.7583 4.10889Z" fill="#19191C"/>
<path fill-rule="evenodd" clip-rule="evenodd" d="M24.5477 2.03296H25.2493C31.3025 2.44069 37.0635 12.6987 40.8996 28.546V59.1704C39.4046 27.5385 32.7517 4.10392 24.8858 4.10392C23.2633 4.10392 21.6001 5.12326 19.9658 7.01583V4.06314C21.4948 2.81785 23.034 2.1213 24.5477 2.03296ZM59.6894 5.04171V7.97571C58.7143 6.80857 57.7527 6.18677 56.8404 6.18677C51.0132 6.18677 46.2002 31.3645 45.4408 64.019L40.9132 59.3827V59.3097C42.3912 27.6082 49.0526 4.10392 56.9304 4.10392C57.841 4.10392 58.7652 4.42671 59.6894 5.04171Z" fill="#19191C"/>
<path fill-rule="evenodd" clip-rule="evenodd" d="M79.7942 67.4881V67.9689L75.6777 63.759L75.6608 63.776C74.4613 32.6946 66.5224 8.19986 58.862 4.56931V2.34375C68.6715 5.59714 78.9974 33.0955 79.7925 67.4881H79.7942Z" fill="#19191C"/>
</g>
<defs>
<clipPath id="clip0_0_929">
<rect width="81.8139" height="70" fill="white"/>
</clipPath>
</defs>
</svg>
