<svg width="16" height="16" viewBox="0 0 16 16" fill="none" xmlns="http://www.w3.org/2000/svg">
<path d="M14.1666 12.3135L13.0666 12.5735C12.82 12.6335 12.6266 12.8202 12.5733 13.0668L12.34 14.0468C12.2133 14.5802 11.5333 14.7468 11.18 14.3268L9.18664 12.0335C9.02664 11.8468 9.11331 11.5535 9.35331 11.4935C10.5333 11.2068 11.5933 10.5468 12.3733 9.60682C12.5 9.45349 12.7266 9.43349 12.8666 9.57349L14.3466 11.0535C14.8533 11.5602 14.6733 12.1935 14.1666 12.3135Z" fill="white"/>
<path d="M1.79999 12.3135L2.89999 12.5735C3.14665 12.6335 3.33999 12.8202 3.39332 13.0668L3.62665 14.0468C3.75332 14.5802 4.43332 14.7468 4.78665 14.3268L6.77999 12.0335C6.93999 11.8468 6.85332 11.5535 6.61332 11.4935C5.43332 11.2068 4.37332 10.5468 3.59332 9.60682C3.46665 9.45349 3.23999 9.43349 3.09999 9.57349L1.61999 11.0535C1.11332 11.5602 1.29332 12.1935 1.79999 12.3135Z" fill="white"/>
<path d="M7.99998 1.33325C5.41998 1.33325 3.33331 3.41992 3.33331 5.99992C3.33331 6.96659 3.61998 7.85325 4.11331 8.59325C4.83331 9.65992 5.97331 10.4133 7.29998 10.6066C7.52665 10.6466 7.75998 10.6666 7.99998 10.6666C8.23998 10.6666 8.47331 10.6466 8.69998 10.6066C10.0266 10.4133 11.1666 9.65992 11.8866 8.59325C12.38 7.85325 12.6666 6.96659 12.6666 5.99992C12.6666 3.41992 10.58 1.33325 7.99998 1.33325ZM10.04 5.85325L9.48665 6.40659C9.39331 6.49992 9.33998 6.67992 9.37331 6.81325L9.53331 7.49992C9.65998 8.03992 9.37331 8.25325 8.89331 7.96659L8.22665 7.57325C8.10665 7.49992 7.90665 7.49992 7.78665 7.57325L7.11998 7.96659C6.63998 8.24659 6.35331 8.03992 6.47998 7.49992L6.63998 6.81325C6.66665 6.68659 6.61998 6.49992 6.52665 6.40659L5.95998 5.85325C5.63331 5.52659 5.73998 5.19992 6.19331 5.12659L6.90665 5.00659C7.02665 4.98659 7.16665 4.87992 7.21998 4.77325L7.61331 3.98659C7.82665 3.55992 8.17331 3.55992 8.38665 3.98659L8.77998 4.77325C8.83331 4.87992 8.97331 4.98659 9.09998 5.00659L9.81331 5.12659C10.26 5.19992 10.3666 5.52659 10.04 5.85325Z" fill="white"/>
</svg>
