<svg width="32" height="32" viewBox="0 0 32 32" fill="none" xmlns="http://www.w3.org/2000/svg">
<path d="M22.6667 5.33301H9.33333C5.33333 5.33301 2.66666 7.33301 2.66666 11.9997V16.7463C2.66666 17.2397 3.17333 17.5463 3.61333 17.3463C4.92 16.7463 6.42666 16.5197 8.01333 16.7997C11.52 17.4263 14.0933 20.6797 14 24.2397C13.9867 24.7997 13.9067 25.3463 13.76 25.8797C13.6533 26.293 13.9867 26.6797 14.4133 26.6797H22.6667C26.6667 26.6797 29.3333 24.6797 29.3333 20.013V11.9997C29.3333 7.33301 26.6667 5.33301 22.6667 5.33301ZM16 19.333C14.16 19.333 12.6667 17.8397 12.6667 15.9997C12.6667 14.1597 14.16 12.6663 16 12.6663C17.84 12.6663 19.3333 14.1597 19.3333 15.9997C19.3333 17.8397 17.84 19.333 16 19.333ZM25.6667 18.6663C25.6667 19.213 25.2133 19.6663 24.6667 19.6663C24.12 19.6663 23.6667 19.213 23.6667 18.6663V13.333C23.6667 12.7863 24.12 12.333 24.6667 12.333C25.2133 12.333 25.6667 12.7863 25.6667 13.333V18.6663Z" fill="#292d32"/>
<path d="M6.66667 18.6663C5 18.6663 3.49334 19.4529 2.52 20.6529C1.77334 21.5729 1.33334 22.7329 1.33334 23.9996C1.33334 26.9463 3.73334 29.3329 6.66667 29.3329C8.98667 29.3329 10.9733 27.8529 11.6933 25.7729C11.8933 25.2263 12 24.6263 12 23.9996C12 21.0663 9.61334 18.6663 6.66667 18.6663ZM9.81334 26.3196C9.78667 26.3996 9.73334 26.4796 9.68 26.5329L8.72 27.4796C8.6 27.6129 8.44 27.6663 8.26667 27.6663C8.09334 27.6663 7.92 27.6129 7.8 27.4796C7.58667 27.2796 7.56 26.9596 7.69334 26.7196H5.01334C4.16 26.7196 3.46667 26.0263 3.46667 25.1596V25.0263C3.46667 24.6529 3.76 24.3729 4.12 24.3729C4.48 24.3729 4.77334 24.6529 4.77334 25.0263V25.1596C4.77334 25.3063 4.88 25.4263 5.02667 25.4263H7.70667C7.57334 25.1729 7.6 24.8663 7.81334 24.6529C8.06667 24.3996 8.48 24.3996 8.72 24.6529L9.68 25.6129C9.73334 25.6663 9.78667 25.7463 9.82667 25.8263C9.88 25.9729 9.88 26.1596 9.81334 26.3196ZM9.86667 22.9729C9.86667 23.3463 9.57334 23.6263 9.21334 23.6263C8.85334 23.6263 8.56 23.3463 8.56 22.9729V22.8396C8.56 22.6929 8.45334 22.5729 8.30667 22.5729H5.64C5.77334 22.8263 5.74667 23.1329 5.53334 23.3463C5.41334 23.4663 5.25334 23.5329 5.06667 23.5329C4.90667 23.5329 4.73334 23.4663 4.61334 23.3463L3.65334 22.3863C3.6 22.3329 3.54667 22.2529 3.50667 22.1729C3.45334 22.0129 3.45334 21.8396 3.50667 21.6796C3.54667 21.6129 3.58667 21.5196 3.65334 21.4663L4.61334 20.5196C4.86667 20.2529 5.28 20.2529 5.52 20.5196C5.73334 20.7196 5.76 21.0396 5.62667 21.2796H8.30667C9.16 21.2796 9.85334 21.9729 9.85334 22.8396V22.9729H9.86667Z" fill="#292d32"/>
</svg>
