<svg width="76" height="71" viewBox="0 0 76 71" fill="none" xmlns="http://www.w3.org/2000/svg">
<g clip-path="url(#clip0_0_891)">
<mask id="mask0_0_891" style="mask-type:luminance" maskUnits="userSpaceOnUse" x="-25" y="-12" width="126" height="95">
<path d="M-24.5615 -11.0546H100.825V82.9858H-24.5615V-11.0546Z" fill="white"/>
</mask>
<g mask="url(#mask0_0_891)">
<path d="M41.8452 0.907539H44.0837C48.0081 1.0756 51.8605 1.98405 55.5815 3.20461C58.5561 4.21359 61.3425 5.77107 63.7577 7.78088C66.3351 9.91742 68.4777 12.5476 70.189 15.4182C71.9612 18.4021 73.291 21.6407 74.2127 24.984C74.6509 26.581 74.996 28.2063 75.196 29.8514C75.3179 30.9159 75.3411 31.9889 75.3856 33.0589V35.5542C75.2822 38.7068 75.1453 41.8877 74.3968 44.965C74.0949 46.4612 73.7395 47.9513 73.2047 49.3831C72.0797 52.4222 70.3156 55.1913 68.2395 57.6675C65.7311 60.6654 62.7839 63.2635 59.6827 65.6301C58.2803 66.703 56.8292 67.7411 55.218 68.48C54.2072 68.9279 53.126 69.2778 52.0133 69.3004C51.7729 69.3181 51.4593 69.2121 51.4353 68.9347C51.512 68.5074 51.7831 68.1048 52.1646 67.8897C54.9989 66.2135 57.7317 64.3371 60.1613 62.1075C62.6847 59.8054 64.8615 57.1128 66.5111 54.1176C69.0468 49.5564 70.2958 44.3638 70.5786 39.1759C70.8409 35.0146 70.5013 30.8128 69.533 26.7563C68.7934 23.682 67.6622 20.6793 65.9763 17.995C65.0402 16.5083 63.9343 15.1251 62.6545 13.9209C61.4171 12.7568 60.0113 11.7927 58.6116 10.8384C55.9514 9.09291 53.1617 7.49404 50.1527 6.43119C49.0147 6.0197 47.8204 5.80401 46.6337 5.59242C45.7525 5.44897 44.8643 5.31195 43.9693 5.3185C43.6722 5.34587 43.2928 5.33118 43.0976 5.60062C43.0065 5.97765 43.2106 6.37028 43.5475 6.54905C44.2295 6.93078 45.0375 6.96268 45.8011 7.00854C47.7041 7.02396 49.5296 7.67478 51.2545 8.42355C53.9464 9.64626 56.5327 11.1298 58.8424 12.9814C60.4256 14.2479 61.8739 15.6914 63.0811 17.3239C63.8398 18.3291 64.4514 19.432 65.0929 20.5122C65.9722 22.0871 66.5337 23.8173 66.9624 25.563C67.9519 29.7408 68.1984 34.0559 68.1956 38.3378C68.1956 42.4834 67.1822 46.6043 65.3751 50.3281C64.0651 53.0891 62.3122 55.6077 60.4824 58.0448C58.5 60.5915 56.0376 62.7376 53.3554 64.5179C47.2151 68.5738 39.9011 70.6234 32.5934 71.0281H30.3292C26.214 70.8644 22.1136 70.007 18.3299 68.3664C16.9132 67.7439 15.5115 67.0585 14.258 66.1436C12.0158 64.531 9.98514 62.6156 8.28037 60.4408C7.10738 58.9268 6.08635 57.2567 5.5632 55.4016C5.40157 54.7901 5.25028 54.1396 5.38993 53.5089C5.46395 53.1371 5.7844 52.8186 6.17403 52.8125C6.57498 52.8618 6.86255 53.1837 7.12452 53.4616C7.83668 54.284 8.43924 55.1927 9.10315 56.0535C9.94296 57.1793 10.878 58.229 11.8569 59.2356C14.0242 61.5365 16.514 63.5887 19.4064 64.9089C21.3259 65.8094 23.3271 66.5339 25.3748 67.0845C26.8594 67.4775 28.3735 67.7953 29.91 67.887C30.3949 67.9117 30.8886 67.9192 31.3663 67.8151C31.6145 67.7665 31.8055 67.4453 31.6302 67.2283C31.4774 67.0393 31.2139 67.031 30.9954 66.9763C28.6939 66.5572 26.3253 66.3032 24.1515 65.3835C22.2479 64.583 20.4593 63.5347 18.7401 62.3972C16.0018 60.5449 13.4244 58.4146 11.2988 55.872C10.4107 54.8285 9.71398 53.6383 9.08773 52.4236C8.15541 50.5719 7.35565 48.6272 6.98855 46.5783C6.55306 43.5188 6.48351 40.4222 6.45278 37.3373C6.52569 34.9735 6.42259 32.5741 6.9711 30.2558C7.55181 27.5489 8.52514 24.9211 9.90121 22.5161C11.5152 19.6583 13.6955 17.1541 16.1408 14.9772C16.9742 14.2085 17.9055 13.5522 18.8696 12.9595C21.6699 11.2421 24.7404 10.0441 27.7681 8.79885C27.9981 8.71394 28.4036 8.53045 28.1523 8.2373C27.8328 8.05106 27.4422 8.18361 27.1032 8.24006C24.4529 8.75949 21.9274 9.80305 19.5681 11.1014C16.3754 12.8719 13.4993 15.2312 11.2012 18.0716C9.09764 20.6628 7.48164 23.6402 6.40894 26.7974C5.16163 30.4167 4.60456 34.2487 4.53611 38.068C4.52448 38.5596 4.57921 39.1157 4.26868 39.5341C4.06768 39.8032 3.67806 39.797 3.40592 39.6471C2.80709 39.3349 2.3907 38.7172 2.27015 38.0577C1.84459 35.6189 1.71755 33.1229 1.96612 30.6577C2.29832 27.3195 3.25525 24.0429 4.79729 21.0628C6.64722 17.4287 9.26748 14.2113 12.3352 11.5351C14.6836 9.49351 17.3367 7.82545 20.1207 6.44496C23.6102 4.72414 27.3086 3.44222 31.0913 2.5418C32.962 2.09082 34.863 1.78133 36.7595 1.46358C38.4432 1.18415 40.1402 0.987991 41.8452 0.907539Z" fill="#19191C"/>
<path d="M43.0988 14.746C43.3781 14.6727 43.6822 14.5845 43.9629 14.7012C44.3539 14.8392 44.575 15.2244 44.7127 15.5914C45.1763 16.8771 45.6385 18.1651 46.1966 19.4124C46.2438 19.534 46.3863 19.5504 46.4951 19.5867C48.7494 20.1164 51.0255 20.5639 53.247 21.2212C54.9266 21.7489 56.605 22.2994 58.2115 23.0235C58.7367 23.2728 59.3619 23.5019 59.6214 24.0688C59.8898 24.8231 59.3201 25.7506 58.5039 25.7945C56.5818 25.8585 54.6672 26.042 52.7525 26.2108C47.9421 26.6545 43.135 27.1722 38.3684 27.9703C30.916 29.2803 23.536 30.9614 16.1433 32.5618C15.6633 32.6713 15.0295 32.4597 14.897 31.9393C14.783 31.5318 15.0805 31.1648 15.3757 30.9237C16.8089 29.7179 18.3509 28.6475 19.9095 27.6115C21.7248 26.4245 23.6065 25.3333 25.5694 24.4095C26.0176 24.1877 26.4688 23.9703 26.9023 23.721C27.0605 23.6388 27.1645 23.4899 27.2502 23.3385C28.0383 21.9488 28.6964 20.4899 29.4907 19.104C29.677 18.8225 29.8177 18.4691 30.1289 18.3047C32.7474 17.631 35.3396 16.8579 37.9509 16.1584C39.6646 15.6801 41.3759 15.1898 43.0988 14.746Z" fill="#FFFCFC"/>
<path d="M34.9711 30.1738C35.1766 30.1091 35.4303 30.0362 35.6202 30.182C35.8411 30.4268 35.6705 30.7665 35.5446 31.013C35.0652 31.883 34.5318 32.7239 33.9604 33.5347C33.6327 34.0353 32.8466 34.1784 32.4083 33.7449C32.0037 33.281 32.1252 32.5798 32.4265 32.0939C32.9551 31.1216 33.9566 30.532 34.9711 30.1738Z" fill="#FFFCFC"/>
<path d="M57.4047 30.9299C57.6431 30.7792 57.9402 30.6725 58.2175 30.7867C58.4832 30.8614 58.61 31.1484 58.6291 31.4031C58.7031 32.3453 58.1169 33.2033 58.21 34.1476C58.2806 34.6269 58.7647 34.9245 59.218 34.9584C59.5508 35.0203 59.9569 34.9043 60.228 35.1556C60.4198 35.4367 60.1931 35.79 59.9678 35.9763C59.4673 36.3605 58.8421 36.5734 58.2148 36.6173C57.539 36.6618 56.7912 36.4974 56.3413 35.9534C55.4888 36.7357 54.4712 37.3807 53.3338 37.6389C52.6443 37.7916 51.8218 37.7629 51.287 37.2438C50.7947 36.7836 50.7502 36.0495 50.8269 35.4213C50.9891 34.3756 51.6492 33.4903 52.3895 32.7699C53.6953 31.4705 55.5709 30.7967 57.4047 30.9299Z" fill="#FFFCFC"/>
<path d="M43.8892 31.8285C45.2559 31.6604 46.6207 31.4679 47.9895 31.3179C48.6072 31.2906 49.3549 31.3967 49.7165 31.9627C50.0315 32.5122 49.7891 33.1843 49.4111 33.6352C48.4072 34.8332 47.3458 35.9816 46.3023 37.1443C47.3979 37.2087 48.4449 37.6551 49.5515 37.586C49.9425 37.5778 50.3164 37.4402 50.708 37.4436C50.9929 37.775 50.7703 38.2181 50.463 38.4386C49.4152 39.265 48.0073 39.4136 46.7172 39.3554C45.5024 39.339 44.2679 39.1466 43.0674 39.4184C42.8189 39.4677 42.521 39.5582 42.3012 39.3801C42.0088 39.1418 42.0498 38.7145 42.1307 38.3879C42.356 37.7195 42.8387 37.1806 43.3194 36.6793C44.3965 35.6066 45.5874 34.6569 46.6919 33.6133C45.8229 33.7092 44.9505 33.8297 44.0754 33.7907C43.5536 33.7612 42.9695 33.6352 42.6408 33.1915C42.3498 32.8183 42.3121 32.1753 42.7258 31.8767C43.0784 31.6302 43.503 31.8942 43.8892 31.8285Z" fill="#FFFCFC"/>
<path d="M53.3005 35.1669C53.7114 33.8775 54.9557 33.0365 56.191 32.635C56.052 33.1044 55.9061 33.5717 55.8136 34.0528C55.8075 34.1945 55.6705 34.2538 55.5713 34.3249C54.992 34.6903 54.4031 35.0635 53.7388 35.2508C53.5834 35.321 53.4354 35.2344 53.3005 35.1669Z" fill="#19191C"/>
<path d="M35.5878 33.5963C37.2347 33.7491 38.8655 33.3279 40.5096 33.3399C40.9491 33.3519 41.4779 33.4183 41.7305 33.8274C42.0023 34.2667 41.838 34.8118 41.6025 35.2289C40.5664 37.0041 39.0565 38.4209 37.6503 39.8945C38.9031 39.7213 40.1837 39.7514 41.4264 39.987C43.0178 40.267 44.6476 40.6176 46.2643 40.341C46.6334 40.291 46.9895 40.1472 47.3654 40.1664C47.5558 40.163 47.6927 40.3623 47.655 40.543C47.6037 40.8895 47.2915 41.1128 47.0142 41.2839C45.8693 41.9626 44.499 42.1426 43.1883 42.0714C40.8978 41.981 38.5895 41.8694 36.3089 42.1679C35.7018 42.2193 35.1715 42.5604 34.5743 42.6453C34.1597 42.7096 33.6985 42.5322 33.4986 42.1495C33.2048 41.6092 33.3507 40.9381 33.6712 40.443C34.2025 39.6289 34.9387 38.9817 35.6142 38.2901C36.6266 37.2616 37.6942 36.2871 38.7696 35.3247C37.7845 35.4846 36.7755 35.6555 35.7803 35.4792C35.3611 35.3925 34.9147 35.2435 34.6408 34.894C34.3662 34.527 34.5113 33.9671 34.8846 33.7261C35.0845 33.5699 35.3495 33.5865 35.5878 33.5963Z" fill="#FFFCFC"/>
<path d="M20.3667 34.0091C21.9817 33.4274 23.7768 33.235 25.4504 33.6794C26.7497 34.0119 27.8946 34.9294 28.466 36.1456C29.0094 37.3098 29.0019 38.7012 28.5089 39.8817C27.9583 41.2759 26.8264 42.3681 25.5417 43.1022C24.5694 43.6623 23.47 44.0506 22.3398 44.0705C21.991 44.0513 21.5078 44.0095 21.3619 43.6323C21.2579 43.2186 21.6859 42.9851 22.0118 42.879C23.2865 42.4674 24.4735 41.7368 25.3435 40.7096C25.8978 40.0454 26.1259 39.1045 25.8732 38.2691C25.727 37.7582 25.3775 37.3173 24.9309 37.0324C24.2343 36.5818 23.3988 36.3476 22.5689 36.3764C22.576 36.927 22.5788 37.4816 22.473 38.0254C22.0402 40.3549 21.2551 42.5961 20.5403 44.8484C19.9887 46.4946 19.4611 48.1538 18.7632 49.7458C18.5589 50.1786 18.3589 50.6635 17.9354 50.9278C17.645 51.1195 17.2075 51.1113 16.9811 50.8251C16.6552 50.4292 16.6323 49.8842 16.6086 49.3939C16.6069 47.5347 16.9192 45.6824 17.4588 43.9055C18.2193 41.493 19.0098 39.0628 20.2992 36.8715C19.8051 36.9557 19.2437 37.0488 18.7907 36.775C18.338 36.4709 18.2942 35.8179 18.5407 35.3667C18.9094 34.6675 19.6599 34.2875 20.3667 34.0091Z" fill="#FFFCFC"/>
<path d="M32.3204 34.4527C32.6163 34.2945 33.049 34.3658 33.1953 34.6927C33.4719 35.2827 33.4654 35.962 33.4171 36.5985C33.2518 38.5145 32.1167 40.1435 31.6456 41.9766C31.569 42.2718 31.5892 42.5971 31.4402 42.8696C31.181 43.2284 30.6305 43.099 30.3439 42.8415C29.7741 42.2998 29.5687 41.4822 29.5496 40.7194C29.5612 39.5546 30.0289 38.4528 30.5767 37.4434C30.9958 36.7005 31.4319 35.9647 31.7791 35.183C31.9168 34.9163 32.0256 34.5849 32.3204 34.4527Z" fill="#FFFCFC"/>
<path d="M50.1627 40.5181C50.6215 40.3237 51.2254 40.6592 51.2747 41.1632C51.3473 41.8589 50.9248 42.4635 50.7297 43.1052C51.8787 42.9265 53.0175 42.6799 54.1493 42.4135C54.4959 42.3369 54.841 42.1917 55.2026 42.226C55.3957 42.2177 55.5024 42.4697 55.397 42.6197C55.2279 42.9149 54.8971 43.0627 54.6164 43.2311C53.1517 43.992 51.5993 44.5733 50.0202 45.0465C49.3225 47.1549 48.7965 49.3139 48.2248 51.4586C48.1446 51.7408 48.0536 52.0366 47.8413 52.2503C47.6818 52.4173 47.377 52.4454 47.2113 52.2729C46.9662 52.0195 46.9115 51.6525 46.8594 51.319C46.6471 49.3578 46.9539 47.3802 47.4867 45.4929C46.9313 45.4512 46.3417 45.4355 45.8541 45.1334C45.5097 44.9342 45.3598 44.4521 45.546 44.0981C45.6761 43.8708 45.9206 43.7174 46.1808 43.6906C46.4869 43.6304 46.7759 43.8002 47.0812 43.7749C47.4729 43.7503 47.8578 43.6653 48.2406 43.579C48.6213 42.7436 49.0623 41.9383 49.5272 41.148C49.6813 40.8913 49.871 40.6283 50.1627 40.5181Z" fill="#FFFCFC"/>
<path d="M1.66421 42.7708C2.37539 42.2956 3.42611 42.4442 3.99414 43.0803C4.50536 43.635 4.72717 44.3862 4.84228 45.1155C5.02411 46.3522 4.96001 47.6129 5.18562 48.8448C5.236 49.1467 5.32435 49.4707 5.19658 49.7665C5.06066 50.1465 4.66424 50.395 4.26365 50.3732C3.57066 50.339 2.88587 50.0862 2.32984 49.6699C1.82486 49.2912 1.53178 48.7023 1.35264 48.1106C1.11099 47.2863 0.960261 46.4371 0.882568 45.5825V44.5204C0.956588 43.8843 1.11265 43.1694 1.66421 42.7708Z" fill="#19191C"/>
<path d="M34.8759 44.032C35.0748 43.7951 35.3498 43.602 35.6638 43.5664C35.8521 43.5417 36.0492 43.6472 36.0976 43.8383C36.2088 44.2217 36.1194 44.6264 36.0746 45.014C35.9322 46.174 35.7123 47.3216 35.5251 48.4734C35.8729 48.3762 36.2033 48.1406 36.5779 48.1872C36.7594 48.1989 36.7275 48.4365 36.7046 48.5598C36.4417 49.1939 35.789 49.5088 35.2402 49.854C34.992 51.0605 34.7307 52.2644 34.4332 53.4599C34.2706 54.057 34.0305 54.7063 33.4763 55.0445C33.1541 55.2636 32.6946 55.3088 32.3789 55.0568C31.968 54.7315 31.864 54.1749 31.8547 53.6798C31.8684 52.8772 32.0399 52.089 32.2036 51.307C31.1683 51.7268 30.1165 52.1233 29.0198 52.3561C28.6801 53.8681 28.3624 55.3882 27.8985 56.868C27.7177 57.4268 27.1873 57.8103 26.6214 57.9068C26.227 58.002 25.7997 57.7911 25.6087 57.4405C25.3559 56.9948 25.3248 56.4647 25.3319 55.9641C25.3998 54.8199 25.6634 53.6996 25.9483 52.5944C25.3083 52.4883 24.6191 52.3404 24.1378 51.8747C23.7953 51.546 23.7919 50.9598 24.1076 50.614C24.3178 50.3826 24.6445 50.3277 24.9375 50.2806C25.5724 50.199 26.2095 50.1416 26.844 50.0566C27.4821 48.3735 28.1717 46.6875 29.1824 45.1893C29.5101 44.7859 29.8206 44.2566 30.3636 44.1367C30.8248 44.0923 30.8933 44.6647 30.8714 45.003C30.7273 46.6109 30.1795 48.1414 29.825 49.7074C30.8457 49.6067 31.8509 49.3931 32.838 49.1192C33.1119 48.1332 33.3968 47.149 33.7601 46.1918C34.0395 45.4304 34.351 44.6606 34.8759 44.032Z" fill="#FFFCFC"/>
<path d="M43.7671 45.1581C44.0553 44.8774 44.586 44.813 44.8784 45.1198C45.0674 45.3738 45.027 45.7155 44.9914 46.0113C44.734 47.5815 44.6819 49.1956 44.9154 50.7726C44.9531 51.1204 45.2112 51.5141 44.9503 51.8305C44.6079 52.1153 44.1101 51.9038 43.802 51.6655C43.1618 51.1239 42.7372 50.348 42.5618 49.5317C41.9271 50.4254 41.2307 51.3292 40.2686 51.8873C39.5824 52.2626 38.6807 52.4578 37.9784 52.0188C37.3895 51.6326 37.333 50.8458 37.3549 50.2076C37.3429 49.2338 37.877 48.3478 37.8736 47.3795C37.8709 46.9727 37.4929 46.7735 37.2032 46.5708C36.955 46.4064 37.0498 46.014 37.3056 45.9086C38.0763 45.5388 39.1168 45.6997 39.6359 46.4174C40.3487 47.3213 40.1165 48.5545 39.907 49.5947C40.4746 49.3208 40.9342 48.8764 41.4169 48.4806C41.8936 48.0438 42.3804 47.6013 42.7584 47.0727C43.0652 46.4235 43.2363 45.6758 43.7671 45.1581Z" fill="#FFFCFC"/>
<path d="M64.3948 63.481C64.6495 63.468 64.9043 63.4701 65.1604 63.4707V63.6316H64.8865C64.8865 63.898 64.8851 64.1637 64.8865 64.4314C64.835 64.4314 64.733 64.4308 64.6817 64.4294C64.681 64.1637 64.6817 63.898 64.6824 63.6337C64.6152 63.6324 64.479 63.631 64.4112 63.6296C64.4071 63.5926 64.3989 63.5187 64.3948 63.481Z" fill="#19191C"/>
<path d="M65.2761 63.4707C65.372 63.4714 65.4686 63.4728 65.5671 63.4741C65.6438 63.7001 65.7239 63.9247 65.8081 64.1493C65.8876 63.9234 65.9677 63.6981 66.0492 63.4735C66.1471 63.4728 66.2464 63.4707 66.3471 63.4707C66.3478 63.7912 66.3471 64.1116 66.3478 64.4328C66.2964 64.4321 66.1944 64.4315 66.1423 64.4315C66.143 64.1863 66.143 63.9418 66.1471 63.6988C66.054 63.9398 65.9841 64.1918 65.8732 64.426C65.8417 64.4315 65.7815 64.441 65.7506 64.4465C65.639 64.215 65.5651 63.9686 65.4788 63.7281C65.4788 63.9604 65.4795 64.1931 65.4815 64.4266C65.4302 64.4294 65.3289 64.4349 65.2775 64.4369C65.2733 64.1144 65.2733 63.7919 65.2761 63.4707Z" fill="#19191C"/>
</g>
</g>
<defs>
<clipPath id="clip0_0_891">
<rect width="74.4775" height="70" fill="white" transform="translate(0.901855 0.966797)"/>
</clipPath>
</defs>
</svg>
