<svg width="32" height="32" viewBox="0 0 32 32" fill="none" xmlns="http://www.w3.org/2000/svg">
<path d="M27.88 14.8263V8.973C27.88 7.87966 27.0533 6.63966 26.0267 6.22633L18.6 3.18633C16.9333 2.50633 15.0533 2.50633 13.3867 3.18633L5.96 6.22633C4.94666 6.63966 4.12 7.87966 4.12 8.973V14.8263C4.12 21.3463 8.85333 27.453 15.32 29.2397C15.76 29.3597 16.24 29.3597 16.68 29.2397C23.1467 27.453 27.88 21.3463 27.88 14.8263ZM17 17.1597V20.6663C17 21.213 16.5467 21.6663 16 21.6663C15.4533 21.6663 15 21.213 15 20.6663V17.1597C13.6533 16.733 12.6667 15.4797 12.6667 13.9997C12.6667 12.1597 14.16 10.6663 16 10.6663C17.84 10.6663 19.3333 12.1597 19.3333 13.9997C19.3333 15.493 18.3467 16.733 17 17.1597Z" fill="#292d32"/>
</svg>
