<svg width="32" height="32" viewBox="0 0 32 32" fill="none" xmlns="http://www.w3.org/2000/svg">
<path d="M26.8 12.293C24.3867 12.293 23.4 10.5863 24.6 8.49296C25.2933 7.27963 24.88 5.73296 23.6667 5.03963L21.36 3.71963C20.3067 3.09296 18.9467 3.4663 18.32 4.51963L18.1733 4.77296C16.9733 6.8663 15 6.8663 13.7867 4.77296L13.64 4.51963C13.04 3.4663 11.68 3.09296 10.6267 3.71963L8.32 5.03963C7.10666 5.73296 6.69333 7.29296 7.38666 8.5063C8.6 10.5863 7.61333 12.293 5.2 12.293C3.81333 12.293 2.66666 13.4263 2.66666 14.8263V17.173C2.66666 18.5596 3.8 19.7063 5.2 19.7063C7.61333 19.7063 8.6 21.413 7.38666 23.5063C6.69333 24.7196 7.10666 26.2663 8.32 26.9596L10.6267 28.2796C11.68 28.9063 13.04 28.533 13.6667 27.4796L13.8133 27.2263C15.0133 25.133 16.9867 25.133 18.2 27.2263L18.3467 27.4796C18.9733 28.533 20.3333 28.9063 21.3867 28.2796L23.6933 26.9596C24.9067 26.2663 25.32 24.7063 24.6267 23.5063C23.4133 21.413 24.4 19.7063 26.8133 19.7063C28.2 19.7063 29.3467 18.573 29.3467 17.173V14.8263C29.3333 13.4396 28.2 12.293 26.8 12.293ZM16 20.333C13.6133 20.333 11.6667 18.3863 11.6667 15.9996C11.6667 13.613 13.6133 11.6663 16 11.6663C18.3867 11.6663 20.3333 13.613 20.3333 15.9996C20.3333 18.3863 18.3867 20.333 16 20.333Z" fill="#292d32"/>
</svg>
