<svg width="48" height="48" viewBox="0 0 48 48" fill="none" xmlns="http://www.w3.org/2000/svg">
<path d="M22.5652 6.90663C23.0262 5.97275 23.2566 5.50582 23.5695 5.35663C23.8418 5.22683 24.1581 5.22683 24.4303 5.35663C24.7432 5.50582 24.9737 5.97275 25.4346 6.90663L29.808 15.7666C29.9441 16.0423 30.0121 16.1801 30.1116 16.2872C30.1996 16.3819 30.3052 16.4587 30.4225 16.5132C30.555 16.5748 30.7071 16.5971 31.0113 16.6415L40.7939 18.0714C41.824 18.222 42.3391 18.2973 42.5774 18.5489C42.7848 18.7678 42.8824 19.0686 42.8429 19.3676C42.7975 19.7112 42.4246 20.0744 41.6788 20.8008L34.6028 27.6928C34.3822 27.9077 34.2719 28.0151 34.2007 28.1429C34.1377 28.2561 34.0973 28.3804 34.0817 28.509C34.0641 28.6542 34.0901 28.806 34.1422 29.1095L35.8118 38.8442C35.9879 39.871 36.0759 40.3844 35.9105 40.689C35.7665 40.9541 35.5106 41.14 35.214 41.195C34.8731 41.2581 34.4121 41.0157 33.4901 40.5308L24.7446 35.9317C24.4721 35.7884 24.3359 35.7167 24.1924 35.6886C24.0653 35.6636 23.9346 35.6636 23.8075 35.6886C23.6639 35.7167 23.5277 35.7884 23.2552 35.9317L14.5097 40.5308C13.5877 41.0157 13.1267 41.2581 12.7858 41.195C12.4892 41.14 12.2333 40.9541 12.0894 40.689C11.9239 40.3844 12.0119 39.871 12.188 38.8442L13.8577 29.1095C13.9097 28.806 13.9357 28.6542 13.9181 28.509C13.9025 28.3804 13.8621 28.2561 13.7991 28.1429C13.7279 28.0151 13.6176 27.9077 13.397 27.6928L6.321 20.8008C5.5752 20.0744 5.20231 19.7112 5.15693 19.3676C5.11745 19.0686 5.21498 18.7678 5.42238 18.5489C5.66075 18.2973 6.17582 18.222 7.20597 18.0714L16.9885 16.6415C17.2927 16.5971 17.4448 16.5748 17.5773 16.5132C17.6946 16.4587 17.8002 16.3819 17.8883 16.2872C17.9877 16.1801 18.0557 16.0423 18.1918 15.7666L22.5652 6.90663Z" fill="#FF5C00" stroke="#FF5C00" stroke-width="4.8" stroke-linecap="round" stroke-linejoin="round"/>
</svg>
