<svg width="70" height="70" viewBox="0 0 70 70" fill="none" xmlns="http://www.w3.org/2000/svg">
<g clip-path="url(#clip0_0_937)">
<path d="M69.6364 35C69.6364 54.328 54.0478 69.9966 34.8186 69.9966C15.589 69.9966 0.000610352 54.328 0.000610352 35C0.000610352 15.6721 15.5892 0.00341797 34.8186 0.00341797C54.0478 0.00341797 69.6364 15.6721 69.6364 35Z" fill="white"/>
<path d="M34.5276 12.4452C35.7533 13.1517 37.0537 14.0609 38.0432 15.0246L37.6546 15.4151C35.7014 15.2075 33.6444 15.4668 31.7928 15.4954C31.5865 15.2871 31.1705 14.9738 31.5577 14.7121L34.5276 12.4452ZM69.0612 36.7059C69.0872 37.5873 69.1701 38.3443 68.8262 39.2467C65.2582 40.2618 62.9145 36.484 59.4525 37.0535L59.8439 39.0117C63.0467 39.117 65.0475 42.1886 68.3561 42.0565C67.8861 42.9952 68.5659 45.4691 66.4834 44.4803C64.3213 43.9606 62.7581 42.0565 60.3893 42.0565C60.1035 42.5811 60.2847 43.3077 60.2344 43.9288C62.7335 44.3207 64.5311 46.4331 67.0293 46.8231C66.7943 47.6817 66.5616 48.6431 65.8575 49.1666C63.8251 48.6719 62.2372 46.8465 60.0733 46.8987L59.6882 48.6968C61.7442 48.7497 63.0734 50.569 64.9213 51.1154C64.9721 51.8736 64.2944 52.5515 63.9035 53.2283C62.263 52.7358 61.012 51.3261 59.1372 51.4302C59.1112 50.7238 59.5304 49.922 59.3722 49.1666C57.2668 49.793 55.855 47.8367 54.2945 46.663C54.2498 42.8229 50.2071 40.3034 49.9936 36.7061C49.9524 35.9886 50.0617 35.2232 50.3887 34.4001C51.7174 31.3281 51.3 27.3395 49.8433 24.4751C49.4001 23.7211 48.6162 23.1263 47.8851 22.6829C48.9544 24.9499 50.2581 27.6281 49.6073 30.4142C49.5319 32.5655 48.2622 34.6321 48.2479 36.7061C48.243 37.4456 48.401 38.1851 48.8264 38.9319C50.5198 41.9823 53.5672 44.8703 52.4213 48.6963C52.1062 49.8714 51.1685 50.7799 50.9339 51.9759C52.9155 53.6171 54.7892 55.4667 57.4185 55.5706C58.3553 54.9723 57.8349 52.3188 59.7622 53.5429L62.5762 54.9505C62.3714 55.7036 61.7405 56.3787 61.1693 56.8974C60.1016 56.378 59.0602 55.7548 57.7289 55.8056C57.3365 56.2223 56.9987 56.6898 57.0285 57.2874C57.9653 57.4417 58.8249 57.8368 59.6072 58.3848C59.2437 59.1674 58.5355 59.6576 57.8845 60.2571L55.7019 59.4767C55.3374 59.9982 54.5803 60.546 54.846 61.1186C55.3388 61.3292 55.8849 61.6144 56.2473 61.9798C55.284 63.0213 54.0628 63.6915 52.8876 64.3982C51.8754 61.0898 48.5401 58.7704 48.8266 54.9444L48.6717 54.7894C47.8879 55.671 48.1496 57.0802 48.2002 58.2243C49.1384 60.6204 51.3763 62.4714 51.7158 65.0993C51.3239 65.7758 50.4407 65.9106 49.7625 66.1967C49.8416 61.4589 42.6543 57.8654 47.2634 53.0728C48.8004 50.7261 51.3759 48.4865 50.4634 45.2556C49.5266 42.1359 46.2128 40.203 46.242 36.7061L46.2474 36.4332C47.0019 32.7865 49.2948 28.906 47.4193 25.0264C46.8963 23.466 45.7284 21.6927 44.1401 21.0405C46.5084 23.7511 47.4471 28.174 46.0924 31.8216C45.4094 33.2727 44.4693 35.001 44.3751 36.7066H44.3693C44.319 37.5973 44.5006 38.4834 45.0758 39.323C46.8736 42.241 49.9971 45.4457 48.2004 49.248C46.1695 52.2936 42.6279 55.3915 44.606 59.4031C46.0379 61.7986 48.2536 64.1891 47.6555 67.1342L45.3122 67.9149C46.8745 62.4218 39.2172 59.1941 42.4231 53.6988C44.4018 50.7565 47.9415 47.9954 45.9377 44.0901C44.7399 41.6703 42.265 40.2381 42.3428 37.2144L42.4282 36.7064C43.2347 32.4178 46.4951 28.358 44.215 23.7752C43.616 22.4217 42.4191 21.0422 41.0904 20.2603L41.0103 20.3404C43.6677 22.9184 44.476 27.1604 43.0432 30.5701C42.3748 32.5707 40.9076 34.5635 40.6096 36.7071C40.4675 37.7181 40.5871 38.7657 41.1709 39.8692C42.8634 42.5493 45.8317 45.3923 43.9795 48.8573C42.0291 51.7191 38.7729 54.5041 40.0735 58.2259C41.5064 61.4821 44.4973 64.5843 42.8826 68.6217L40.464 69.1678C42.3903 65.2332 39.5021 61.3285 37.8098 57.9162C35.7515 53.0199 42.232 50.6755 42.3362 46.1995C42.3116 43.3101 39.2399 41.6696 38.5912 39.0138C37.2616 37.8921 35.8837 39.4595 34.2945 39.1686C33.1215 39.4043 31.3194 37.5536 30.619 39.56C29.7852 42.5011 25.9852 44.6631 27.655 48.1518C29.2442 51.2519 33.0683 53.5186 31.7909 57.5307C30.6471 61.2777 26.8686 64.8458 29.2121 69.1678C28.2493 68.856 26.452 69.4531 26.4779 67.9152C24.9943 62.6814 31.3213 59.6318 29.3671 54.4006C28.4577 51.1964 24.314 49.4264 25.2263 45.5723C25.9007 42.3999 29.4605 40.1822 28.9612 36.7071C28.9168 36.4016 28.845 36.1008 28.7468 35.8082C27.4181 32.0583 24.7073 28.3072 26.323 23.9306C26.7666 22.6808 27.6526 21.6134 28.4312 20.496C25.8529 21.8755 24.5523 24.793 24.6057 27.7611C24.4933 30.9887 26.8775 33.7536 27.2167 36.7071C27.3502 37.8991 27.1549 39.1199 26.323 40.4146C24.6317 42.7094 22.4197 45.1292 23.4338 48.1511C24.3981 51.1992 28.1997 53.0459 27.9656 56.5887C27.9396 60.7798 23.0698 63.389 24.45 68.0762L22.0262 67.2899C21.0639 63.1247 25.4901 60.994 25.5409 57.1402C26.1673 52.7088 20.5152 51.0646 20.8544 46.7444C20.83 43.4622 23.7192 41.3835 24.9952 38.6226C25.2139 37.9508 25.2869 37.3162 25.2576 36.7073C25.1013 33.6548 22.3507 31.2684 22.8072 27.8362C22.9607 25.3104 23.8201 23.0961 25.4613 21.1967C23.1969 22.1061 22.2615 24.7127 21.636 26.9005C20.5505 30.4089 23.1417 33.5644 23.4013 36.7073C23.5165 38.0955 23.1775 39.4754 21.8715 40.8863C19.9955 43.0968 18.093 45.8865 19.4475 48.8578C20.8818 52.1363 25.3878 54.6881 23.4334 58.7769C22.3671 61.3557 19.8138 63.3073 19.9187 66.3533C19.2422 66.0668 18.5404 65.7812 17.9655 65.2615C17.9655 61.3824 23.4839 58.9593 20.8546 54.8709C20.6217 55.6774 20.5716 56.7738 20.3892 57.6851C19.4768 60.056 17.5244 61.9536 16.7938 64.4047C15.5721 63.9333 14.2947 62.9426 13.2785 61.9009L14.6861 61.0397C14.5297 60.5177 14.1137 60.0755 13.7497 59.6328C12.8358 59.5045 12.2356 60.1043 11.4818 60.3393C10.8308 59.7651 10.2025 59.2442 9.68355 58.541C10.1508 57.2104 13.8017 58.3106 11.9521 56.1226C10.7035 55.3421 9.45016 56.4573 8.35672 56.978L6.87446 55.1057C8.15049 54.3252 9.42324 53.2288 11.0104 53.5434C11.4015 54.2478 11.4287 55.2834 12.1822 55.6511C14.8649 55.5992 16.7657 53.5698 18.8222 51.9808C17.3889 49.8483 16.2222 46.9038 17.4954 44.3244C18.5153 41.74 21.1737 39.563 21.294 36.7057C21.3214 36.0556 21.22 35.3714 20.9356 34.6349C19.5301 31.0147 19.0341 26.1217 21.7168 22.9175C20.2582 23.3094 19.3981 25.1275 18.9025 26.5077C17.2899 30.0427 19.3295 33.3179 19.4 36.7054C19.4096 37.315 19.3602 37.9255 19.2125 38.5407C17.8318 41.3269 15.5948 43.7715 15.2315 46.9776C13.6425 47.9912 12.3379 49.7637 10.0738 49.1656C9.99419 49.764 10.1765 50.676 10.3842 51.3539C8.58871 51.2783 7.36442 52.6019 5.85289 53.2266C5.04738 52.9682 4.83787 51.9272 4.52606 51.199C6.29556 50.6013 7.57206 48.8274 9.60373 48.8552C9.83923 48.201 9.4717 47.6014 9.368 46.9771C6.84075 45.8556 2.83475 52.5223 2.4979 46.7421C5.02327 46.586 6.63686 44.2415 9.13812 44.0079L9.2128 42.1357C6.37444 41.8491 4.54853 44.7668 1.71135 44.4794L1.08563 41.9807C4.36758 42.1857 6.32294 39.2446 9.44852 39.0864C9.8638 38.5402 9.9139 37.7331 9.99396 36.9786C6.58232 36.5338 4.24141 40.3149 0.620252 39.1667C0.620252 39.1667 0.495477 37.5931 0.427825 36.7057H0.432747C0.41904 36.5093 0.403039 36.3131 0.384754 36.1172C3.61357 37.3698 6.45052 35.0506 9.2128 33.8537C9.9153 33.6435 11.0109 34.008 11.3257 33.2273C11.2988 32.6283 12.391 31.9279 11.4816 31.51C7.4433 30.9618 4.76062 35.8328 0.619781 33.618L0.309143 32.9916C1.1699 21.2222 7.80732 9.84396 18.8218 4.24474C23.2824 1.69548 28.8242 0.39628 34.4132 0.34993C41.1578 0.293748 47.9736 2.06325 53.0435 5.6521C57.9667 8.67187 62.6759 13.6489 65.2317 18.7013C67.6763 23.1282 68.8011 28.0953 69.1373 33.3832C64.8656 36.6109 61.9999 30.3426 57.65 31.7455C57.8841 32.4237 58.014 33.1257 58.5114 33.6985C62.3667 33.6712 65.0213 37.7081 69.057 36.1169L69.0612 36.7059ZM19.9929 22.2112C17.284 20.4401 13.8499 22.108 11.3255 23.0727C11.0911 20.7018 10.1283 18.5418 8.12076 16.9795C7.926 16.8824 7.65679 16.6787 7.41427 16.6635C7.26914 16.6544 7.13102 16.7131 7.02381 16.8985C7.93372 22.4966 4.29478 26.4026 1.71603 30.649C2.57468 31.3506 3.95417 31.246 4.99564 31.0395C7.72936 29.9465 10.3334 28.0436 13.5884 28.6958C14.5512 27.0553 16.1683 25.4663 17.4945 24.1645C18.3049 23.4631 19.4178 23.0181 19.9929 22.2112ZM28.2753 25.7268C28.2231 26.0639 28.3013 26.665 28.821 26.4326C29.6295 25.3129 31.061 26.199 31.9458 26.2776V25.9625C31.4603 25.2001 30.4617 24.8174 29.4472 24.8553C29.2131 24.8637 28.9752 24.8976 28.7463 24.951C28.4071 25.0264 28.1707 25.3368 28.2753 25.7268ZM41.0092 22.3723C40.2818 20.7573 38.6151 20.1037 37.1031 19.713C36.3615 19.6217 35.5921 19.5601 34.8289 19.5527C34.6859 19.5512 34.5431 19.5494 34.4005 19.5527C32.2661 19.5957 30.2264 20.1437 28.9804 21.9008C28.8015 22.3969 28.0152 23.0935 28.7454 23.5381C30.3861 23.4334 32.2584 23.2277 33.352 24.6355C33.352 25.8869 34.1601 27.5513 32.8064 28.1504C31.6848 27.1119 30.3566 28.5925 29.1363 27.7592C28.5625 27.42 28.1995 27.8156 27.9644 28.3105C27.6252 31.5386 29.3158 35.1017 32.3358 36.8979C33.5599 37.3394 35.2053 37.7591 36.4828 37.1329C39.5552 35.7021 40.828 32.423 41.4006 29.4018C41.3238 28.8269 41.3507 27.7065 40.5442 27.6791C39.6334 28.2555 38.3049 27.9149 37.3398 27.6791C36.7688 27.8634 36.7426 28.6986 36.093 28.8568L35.6972 28.541C35.358 27.1107 35.1489 25.0791 36.4786 24.0893C37.9641 23.4903 39.7088 23.2288 41.2449 23.6989C41.5316 23.204 41.0892 22.8147 41.0092 22.3723ZM39.4414 24.9398C39.3382 24.9426 39.238 24.9477 39.136 24.951C38.5905 25.315 37.0003 25.0533 37.5746 26.2776C38.5645 25.4946 39.9447 26.0433 40.9342 26.4326C41.2999 26.2512 41.221 25.8865 41.2446 25.5718C40.9268 24.9808 40.1678 24.9255 39.4414 24.9398ZM50.7792 13.9293C48.8517 13.827 47.2376 14.9214 45.4665 15.4163C45.3124 13.9092 46.4571 12.3176 46.7184 10.8047C43.855 10.9889 41.5867 12.7128 39.2174 14.0897C38.6675 12.762 38.1201 11.4333 37.575 10.1036L40.7002 7.13435L40.7802 6.74296L36.5588 6.50794C35.832 5.23401 35.5452 3.69953 34.6861 2.52767C33.9829 3.85591 33.5105 5.2614 32.808 6.58799L28.592 6.82372V7.13435L31.7918 10.0235C31.4007 11.5086 31.0371 13.1222 30.0743 14.2444C28.1997 13.1215 26.3513 11.8995 24.296 11.1195C23.8014 10.9601 23.0963 10.7005 22.6536 11.0395C23.3037 12.4723 24.2141 14.0134 24.061 15.5771C23.2009 15.4188 22.5251 14.8675 21.7172 14.6358C20.7511 14.372 19.605 13.8572 18.6677 14.1704C20.2305 16.3564 21.5061 18.6446 21.9473 21.2756C27.1318 18.7731 33.1779 17.3969 39.4538 18.4665C42.3959 18.9344 45.1008 20.133 47.7315 21.1199C47.8343 18.3614 49.5785 16.1448 50.7792 13.9293ZM59.6824 28.931C62.3365 29.6333 64.9988 32.5253 67.8093 30.649C65.3614 26.5873 61.7183 22.8363 62.7316 17.525C62.8377 17.1624 62.6031 16.7953 62.2663 16.7438C60.6784 17.3927 59.4485 18.9571 58.8202 20.4946C58.5618 21.4043 58.4091 22.3709 58.0451 23.2284C56.1427 22.2382 54.1131 21.2793 51.7956 21.5108C50.9594 21.615 49.7618 21.6698 49.6073 22.528C52.2371 23.9334 54.3999 26.2788 56.0118 28.7768C57.1345 28.594 58.5107 28.7501 59.6824 28.931ZM31.8709 32.6021L31.9458 33.0728C32.9634 33.7505 33.2764 34.8994 34.6854 34.7953C35.9345 34.8692 36.8718 33.6988 37.494 32.7619C35.8039 32.5283 33.7462 32.8895 31.8709 32.6021ZM33.2776 30.4941C33.3284 30.7024 33.1486 31.0149 33.4326 31.1205C34.2662 30.9395 35.7758 31.5639 36.2412 30.5741C35.916 30.2101 35.3858 30.0448 34.8289 30.0448C34.2725 30.0448 33.6952 30.2068 33.2776 30.4941Z" fill="#19191C"/>
<path opacity="0.99" d="M31.8728 29.5901H37.583V31.9359H31.8728V29.5901Z" fill="white"/>
<path d="M32.9274 30.8447C33.6652 31.0193 33.8478 31.2808 34.4307 31.3541C35.051 31.3431 34.9616 31.2171 36.0424 30.844C36.1138 30.819 36.2112 30.6621 36.0904 30.542C35.4188 29.8758 34.9546 30.3519 34.5342 30.3646C33.9754 30.3704 33.452 29.8866 32.9065 30.5158C32.8136 30.6434 32.7651 30.7691 32.9274 30.8447Z" fill="#19191C"/>
<path d="M59.9043 69.3352V65.994H58.7109V65.3137H61.9067V65.994H60.7161V69.3352H59.9043ZM62.4226 69.3352V65.3135H63.6378L64.3675 68.0568L65.0889 65.3135H66.3069V69.3352H65.5524V66.1695L64.7542 69.3352H63.9723L63.1769 66.1695V69.3352H62.4226Z" fill="#19191C"/>
</g>
<defs>
<clipPath id="clip0_0_937">
<rect width="69.636" height="70" fill="white"/>
</clipPath>
</defs>
</svg>
