<svg width="32" height="32" viewBox="0 0 32 32" fill="none" xmlns="http://www.w3.org/2000/svg">
<path d="M21.5867 2.66626H10.4133C5.56 2.66626 2.66667 5.55959 2.66667 10.4129V21.5729C2.66667 26.4396 5.56 29.3329 10.4133 29.3329H21.5733C26.4267 29.3329 29.32 26.4396 29.32 21.5863V10.4129C29.3333 5.55959 26.44 2.66626 21.5867 2.66626ZM22.5067 15.3729C22.5067 15.8929 22.0933 16.3063 21.5733 16.3063C21.0533 16.3063 20.64 15.8929 20.64 15.3729V15.1329L17.0133 18.7596C16.8133 18.9596 16.5467 19.0529 16.2667 19.0263C15.9867 18.9996 15.7333 18.8529 15.5867 18.6129L14.2267 16.5863L11.0533 19.7596C10.8667 19.9463 10.64 20.0263 10.4 20.0263C10.16 20.0263 9.92001 19.9329 9.74667 19.7596C9.38667 19.3996 9.38667 18.8129 9.74667 18.4396L13.72 14.4663C13.92 14.2663 14.1867 14.1729 14.4667 14.1996C14.7467 14.2263 15 14.3729 15.1467 14.6129L16.5067 16.6396L19.32 13.8263H19.08C18.56 13.8263 18.1467 13.4129 18.1467 12.8929C18.1467 12.3729 18.56 11.9596 19.08 11.9596H21.56C21.68 11.9596 21.8 11.9863 21.92 12.0263C22.1467 12.1196 22.3333 12.3063 22.4267 12.5329C22.48 12.6529 22.4933 12.7729 22.4933 12.8929V15.3729H22.5067Z" fill="#292D32"/>
</svg>
