<svg width="24" height="24" viewBox="0 0 24 24" fill="none" xmlns="http://www.w3.org/2000/svg">
<path d="M7.54776 22.0068C16.6048 22.0068 21.5578 14.313 21.5578 7.64124C21.5578 7.42274 21.5534 7.20524 21.5438 6.98864C22.5075 6.27359 23.3393 5.38826 24 4.37414C23.1177 4.77634 22.1683 5.04704 21.1723 5.16909C22.1889 4.54404 22.9694 3.55519 23.3376 2.37649C22.371 2.96443 21.3136 3.3789 20.2109 3.60204C19.3123 2.62064 18.0331 2.00684 16.6166 2.00684C13.8974 2.00684 11.6923 4.26794 11.6923 7.05509C11.6923 7.45134 11.7356 7.83664 11.8201 8.20634C7.72766 7.99519 4.09878 5.98609 1.67015 2.93114C1.23273 3.70166 1.00265 4.57736 1.00341 5.46884C1.00341 7.22054 1.87268 8.76689 3.19463 9.67159C2.41268 9.6471 1.6479 9.43053 0.964585 9.04009C0.963854 9.06129 0.963854 9.08194 0.963854 9.10459C0.963854 11.5497 2.66112 13.5913 4.91419 14.0539C4.49104 14.1721 4.05439 14.2318 3.6158 14.2315C3.29907 14.2315 2.99039 14.1996 2.69039 14.1405C3.31727 16.1466 5.13502 17.6065 7.29019 17.6473C5.60488 19.0017 3.4819 19.8085 1.17454 19.8085C0.782024 19.8088 0.389833 19.7855 0 19.7385C2.17922 21.1708 4.76659 22.0068 7.54776 22.0068Z" fill="#F8F9FF"/>
</svg>
